<?xml version="1.0" encoding="utf-8"?>
<!DOCTYPE svg PUBLIC "-//W3C//DTD SVG 1.1//EN" "http://www.w3.org/Graphics/SVG/1.1/DTD/svg11.dtd">
<svg version="1.1" id="Layer_1" xmlns="http://www.w3.org/2000/svg" xmlns:xlink="http://www.w3.org/1999/xlink" x="0px" y="0px"
	 viewBox="188 251.8 415.8 110.5" enable-background="new 188 251.8 415.8 110.5" xml:space="preserve">
<path fill="#231F20" d="M399.8,279c9.1,8.3,13.6,19.7,13.6,34.4c0,14.8-4.4,26.5-13.3,35.1c-8.8,8.6-22.3,12.9-40.4,12.9h-31.9
	v-94.6h33C377.7,266.9,390.7,270.7,399.8,279z M384.2,335.2c5.2-4.9,7.8-12,7.8-21.4c0-9.3-2.6-16.7-7.8-21.7
	c-5.2-5-13.2-7.7-24-7.7H348v58.1h13.8C371.5,342.5,379,340.1,384.2,335.2z"/>
<path fill="#231F20" d="M488.6,361.5h-18.9v-9c-5.4,6.6-11.7,9.9-19.4,9.9c-7.7,0-14.2-2.2-19.5-6.7c-5.3-4.5-7.9-10.5-7.9-17.9
	c0-7.5,2.7-13,8.2-16.7c5.4-3.7,12.9-5.5,22.3-5.5h15v-0.6c0-7.8-4-11.7-12.2-11.7c-3.5,0-7.2,0.7-11.2,2.1c-3.9,1.4-7.2,3.1-10,5.2
	l-9.1-13.2c9.6-7,20.6-10.5,32.9-10.5c8.9,0,15.9,2.2,21.6,6.7c5.6,4.4,8.2,11.5,8.2,21.1L488.6,361.5L488.6,361.5z M468.3,333.4v-3
	h-12.7c-8.2,0-12.2,2.3-12.2,7.3c0,2.6,1,4.5,2.9,5.9c1.9,1.4,4.7,2,8.4,2c3.6,0,6.8-1.1,9.5-3.4C467,340.1,468.3,337.1,468.3,333.4
	z"/>
<path fill="#231F20" d="M542.3,306.1c-6.1,0-10.9,2.1-13.9,6.5c-3,4.3-4.8,10-4.8,17.1v31.9h-20.3v-72.9h20.3v9.3
	c2.7-3,6.4-5.5,10.3-7.6c3.9-2.1,8.6-3.2,12.6-3.3v19.2L542.3,306.1L542.3,306.1z"/>
<path fill="#231F20" d="M579.1,303.4v32.2c0,2.8,0.8,5,2.3,6.6c1.4,1.6,3.2,2.4,5.2,2.4c3.8,0,7-1.7,9.7-5.2l7.6,14.3
	c-6.3,5.8-13,8.7-20,8.7c-7,0-12.9-2.3-17.8-6.9c-4.9-4.6-7.2-10.9-7.2-18.9v-69.6h20.3v20.3h21.6l-11.1,16.2L579.1,303.4
	L579.1,303.4z"/>
<path fill="#00C4B3" d="M217.7,281.7l-7.1-7.1l0,51.2l0.1,2.4c0,1.1,0.2,2.4,0.6,3.7l56.2,19.8l14-6.2l0,0L217.7,281.7z"/>
<path fill="#22D3C5" d="M211.3,331.9L211.3,331.9C211.3,331.9,211.3,331.9,211.3,331.9C211.3,331.9,211.3,331.9,211.3,331.9z
	 M281.5,345.5l-14,6.2l-56.1-19.8c1.1,4.1,3.4,8.7,6,11.3l18.3,18.2l40.8,0.1L281.5,345.5L281.5,345.5z"/>
<path fill="#0075C9" d="M210.8,274.6l-21.8,33c-1.8,1.9-0.9,5.9,2,8.9l12.6,12.7l7.9,2.8c-0.3-1.3-0.6-2.6-0.6-3.7l-0.1-2.4
	L210.8,274.6L210.8,274.6z"/>
<path fill="#0075C9" d="M267.9,275.2c-1.3-0.3-2.6-0.5-3.7-0.6l-2.5-0.1l-51.1,0l70.9,70.9h0l6.2-14L267.9,275.2z"/>
<path fill="#00A8E1" d="M267.8,275.2C267.9,275.2,267.9,275.2,267.8,275.2L267.8,275.2C267.9,275.2,267.9,275.2,267.8,275.2z
	 M279.2,281.2c-2.6-2.6-7.1-5-11.3-6l19.8,56.2l-6.2,14h0l15.2-4.9l0-41.7L279.2,281.2z"/>
<path fill="#00C4B3" d="M265.1,267.4l-12.7-12.6c-2.9-2.9-6.9-3.8-8.9-2l-33,21.8l51.1,0l2.5,0.1c1.1,0,2.4,0.2,3.7,0.6L265.1,267.4
	z"/>
</svg>
