<?xml version="1.0" encoding="UTF-8" standalone="no"?>

<svg
xmlns:svg="http://www.w3.org/2000/svg"
xmlns="http://www.w3.org/2000/svg"
version="1.1"
width="100"
height="100">

<circle id="orange-circle"
	cx="9.1239996"
	cy="46.903999"
	r="9.1239996"
	transform="matrix(0.99207442,0,0,0.99207442,5.0000008,3.4751823)"
	style="fill:#ff6309" />
	
<circle id="yellow-circle"
	cx="74.547997"
	cy="84.667"
	r="9.1239996"
	transform="matrix(0.99207442,0,0,0.99207442,5.0000008,3.4751823)"
	style="fill:#ffb515" />

<circle id="red-circle"
	cx="74.540001"
	cy="9.1260004"
	r="9.1239996"
	transform="matrix(0.99207442,0,0,0.99207442,5.0000008,3.4751823)"
	style="fill:#c90016" />
	
<path	id="orange-arm"
	d="m 57.321014,27.609377 c 11.270956,0 20.622251,8.369139 22.170878,19.219455 l 15.508107,0 C 94.295626,38.302945 90.760867,30.35643 84.851079,24.089497 c -3.784765,1.927599 -8.438584,1.964306 -12.392002,-0.317464 -3.956393,-2.284747 -6.252052,-6.336379 -6.472294,-10.582458 -2.808563,-0.65477 -5.71038,-0.994059 -8.665769,-0.994059 -5.658793,0 -11.127106,1.235133 -16.100377,3.577419 l 7.763975,13.447571 c 2.5784,-1.03771 5.391926,-1.611129 8.336402,-1.611129 z"
	style="fill:#ff6309" />
	
<path id="yellow-arm"
	d="m 34.923942,50.007439 c 0,-7.13599 3.354203,-13.502131 8.567554,-17.606345 L 35.729505,18.95551 c -1.820457,1.27184 -3.542696,2.711341 -5.146881,4.314533 -4.492113,4.492112 -7.713379,9.915782 -9.486216,15.835492 3.571468,2.313518 5.936573,6.329435 5.936573,10.901904 0,4.57148 -2.365105,8.588389 -5.936573,10.900914 1.772837,5.919711 4.994103,11.343381 9.486216,15.835492 1.603193,1.603193 3.323448,3.040709 5.142913,4.313541 L 43.48852,67.61081 C 38.276161,63.506597 34.923942,57.140455 34.923942,50.007439 z"
	style="fill:#ffb515" />
	
<path id="red-arm"
	d="m 79.492884,53.176125 c -1.544659,10.854288 -10.897938,19.228389 -22.17187,19.228389 -2.946463,0 -5.760978,-0.573419 -8.339378,-1.613116 l -7.764967,13.448563 c 4.972276,2.343281 10.442576,3.579403 16.103353,3.579403 2.957373,0 5.86316,-0.341273 8.672715,-0.996043 0.216272,-4.251039 2.512923,-8.309615 6.472292,-10.595353 3.95441,-2.283755 8.610213,-2.247048 12.39597,-0.315481 5.904828,-6.267925 9.435619,-14.213451 10.138008,-22.736362 l -15.506123,0 z"
	style="fill:#c90016" />
	
</svg>