<?xml version="1.0" encoding="UTF-8" standalone="no"?>
<svg
   xmlns:dc="http://purl.org/dc/elements/1.1/"
   xmlns:cc="http://creativecommons.org/ns#"
   xmlns:rdf="http://www.w3.org/1999/02/22-rdf-syntax-ns#"
   xmlns:svg="http://www.w3.org/2000/svg"
   xmlns="http://www.w3.org/2000/svg"
   xmlns:xlink="http://www.w3.org/1999/xlink"
   version="1.1"
   width="565"
   height="96"
   id="svg2997">
  <defs
     id="defs2999" />
  <metadata
     id="metadata3002">
    <rdf:RDF>
      <cc:Work
         rdf:about="">
        <dc:format>image/svg+xml</dc:format>
        <dc:type
           rdf:resource="http://purl.org/dc/dcmitype/StillImage" />
        <dc:title></dc:title>
      </cc:Work>
    </rdf:RDF>
  </metadata>
  <g
     transform="translate(0,-24)"
     id="layer1">
    <path
       d="m 513.05146,46.04809 c -18.6137,3.82245 -26.92339,14.95744 -18.7799,25.42764 4.15485,5.15207 14.62505,8.64207 32.90636,10.96877 21.10661,2.6591 27.92055,7.645 21.10661,15.1236 -7.64491,8.3097 -33.23875,7.9773 -54.34536,-0.8309 -2.4929,-0.9972 -2.99148,-0.3324 -2.99148,4.4872 l 0,5.8168 11.46737,2.1605 c 19.27847,3.6564 42.87798,1.6619 51.85245,-4.321 18.94608,-12.7969 10.13782,-26.9234 -19.27848,-30.57962 -20.27564,-2.65915 -27.08958,-4.48728 -29.08391,-8.30974 -6.98013,-12.96311 25.59384,-17.78273 52.01865,-7.47872 2.32671,0.99716 2.82529,0.33239 2.82529,-3.82246 0,-5.81678 -0.66477,-6.14917 -17.45034,-8.64207 -13.46169,-1.82813 -20.44183,-1.82813 -30.24726,0 z"
       id="path20" />
    <path
       d="m 4,78.4559 0,32.4077 6.64775,0 6.64775,0 0,-15.7884 0,-15.7883 19.77706,0 c 15.45602,0 19.94325,-0.4986 20.60802,-2.3267 1.49575,-3.98872 -0.33238,-4.32112 -20.77421,-4.32112 l -19.61087,0 0,-9.14065 0,-9.14065 23.10093,0 c 17.11796,0 23.26713,-0.49859 23.9319,-2.16052 1.99433,-5.65059 -0.49858,-6.14917 -30.57965,-6.14917 L 4,46.04809 4,78.4559 z"
       id="path22" />
    <path
       d="m 291.51519,78.4559 0,32.9063 22.93473,-0.9971 c 38.88934,-1.662 56.83827,-11.6336 56.83827,-31.743 0,-21.10664 -16.95176,-31.07827 -55.17633,-32.24162 l -24.59667,-0.83097 0,32.90639 z m 47.03283,-22.26999 c 11.79976,3.15768 18.6137,11.30117 18.6137,21.93759 0,16.1208 -10.30401,22.9347 -36.89501,24.0981 l -17.11796,0.8309 0,-24.4304 0,-24.26432 14.62505,0 c 7.9773,0 17.28415,0.83097 20.77422,1.82813 z"
       id="path24" />
    <path
       d="m 78.4548,62.99985 c -0.33238,0.66478 -0.33238,11.79973 0,24.59675 l 0.49858,23.267 5.81679,0 5.65058,0 0,-17.4503 0,-17.45032 5.98298,-2.4929 c 3.32387,-1.32957 10.80259,-2.49293 16.45318,-2.49293 10.13782,0 10.4702,-0.16619 10.13782,-4.15484 -0.1662,-4.98581 -13.2955,-5.81678 -25.09526,-1.66194 -3.65626,1.32955 -6.81394,2.49291 -6.98014,2.49291 -0.33238,0 -0.49858,-1.32955 -0.49858,-2.99149 0,-2.82529 -11.13498,-4.48723 -11.96595,-1.66194 z"
       id="path26" />
    <path
       d="m 148.25618,62.99985 c -25.42765,6.81395 -26.09242,37.22735 -0.83097,45.53705 9.30685,3.1577 39.22172,2.4929 43.37656,-0.8309 2.8253,-2.3268 2.16052,-9.4731 -0.83096,-8.6421 -1.32955,0.3324 -6.14917,1.8281 -10.8026,3.1577 -16.12079,4.6534 -35.06688,-0.9972 -37.72598,-11.3012 -0.83097,-3.1577 -0.16619,-3.3238 25.59384,-3.3238 l 26.42481,0 0,-6.3154 c 0,-15.95464 -21.27281,-24.59671 -45.2047,-18.28135 z m 30.41345,9.47303 c 6.31536,7.64492 4.81962,8.47592 -16.78557,8.47592 -15.62221,0 -19.94325,-0.4986 -19.94325,-2.1605 0,-10.13786 29.58249,-15.12367 36.72882,-6.31542 z"
       id="path28" />
    <path
       d="m 225.86866,62.83366 c -25.42765,7.31252 -25.42765,37.39354 -0.1662,45.70324 8.1435,2.8253 34.40211,2.6591 41.38225,-0.1662 4.65342,-1.9943 3.82245,-9.8054 -0.83097,-8.4758 -24.59668,6.9801 -43.37657,3.49 -46.70045,-8.9745 -0.83097,-3.1577 -0.16619,-3.3238 25.59384,-3.3238 l 26.42481,0 0,-6.3154 c 0,-15.78844 -23.10093,-25.09529 -45.70328,-18.44754 z m 27.25577,7.31252 c 4.32104,2.1605 6.81394,5.4844 6.81394,9.30692 0,0.8309 -8.97446,1.4957 -19.94325,1.4957 -15.62221,0 -19.94325,-0.4986 -19.94325,-2.1605 0,-8.64212 22.10377,-14.4589 33.07256,-8.64212 z"
       id="path30" />
  </g>
  <use
     transform="translate(-4,-5)"
     id="use1-3"
     style="fill:#ffffff"
     xlink:href="#layer1" />
  <g
     transform="matrix(0.04405078,0,0,0.04405078,375.92767,0.261254)"
     id="g3069">
    <path
       d="m 1017.2002,7.23844 c -318.99996,23 -569.99996,185 -784.99996,504 -122,181.99996 -158.000003,292.99996 -226.0000033,693.99996 -5.99999999,36 -8,117 -4,203 8.0000003,157 1,141 84.0000003,195 19.000003,12 63.000003,60 98.000003,105 34,46 74,93 87,103 l 25,19 -31,67 c -48,102 -45,243 5,243 19,0 92,-53 147,-106 l 45,-44 100,39 c 356,139 780.99996,108 1110.99996,-80 l 88,-51 34,38 c 19,22 60,71 90,109 103,128 123,139 148,78 41,-96 31,-178 -42,-364 l -18,-47 69,-66 c 83,-79 73,-77 118,-18 63,84 193,180 293,218 70,26 71,2 8,-101 -116,-186 -123,-241 -45,-351 54,-78 115,-137 166,-161 41,-19 43,-32 13,-60 -51,-46 -152,-58 -235,-29 -50,18 -59,12 -72,-45 -158,-702.99996 -620,-1127.99996 -1196,-1096.99996 -17,1 -50,3 -75,5 z"
       id="path8" />
    <path
       d="m 1402.2002,93.23844 c 169,42 296,117 421,249 223,237.99996 350,522.99996 413,925.99996 1,2 16,-9 34,-24 55,-46 166,-75 235,-59 27,5 26,7 -63,99 -155,160 -164,275 -34,458 13,17 16,28 8,28 -49,0 -265,-234 -260,-282 6,-60 -74,-18 -122,65 -14,23 -37,53 -52,67 l -27,25 -28,-34 c -26,-30 -30,-32 -49,-19 l -20,14 20,34 c 63,102 128,290 129,365 0,83 -24,82 -83,-4 -46,-69 -176,-210 -208,-226 -68,-36 -106,-12 -54,34 51,44 51,44 -76,114 -232,127 -778.99996,158 -979.99996,57 -111,-57 -287,-191 -331,-252 l -21,-31 24,6 c 13,3 65,17 116,31 205,56 773.99996,65 882.99996,14 142,-66 158,-161 18,-108 -249,95 -761.99996,67 -1067.99996,-57 -74,-30 -141.000003,-58 -149.000003,-61 -18,-7 -9,-324 13,-452 60.000003,-351 248.000003,-686.99996 469.000003,-837.99996 23,-16 59,-40 80,-55 140,-96 534.99996,-139 761.99996,-84 z M 386.20024,1931.2384 c 13,17 22,31 20,33 -44,30 -111,67 -116,62 -9,-9 14,-78 34,-103 23,-29 33,-28 62,8 z"
       id="path4690"
       style="fill:#bfcfe7" />
    <path
       d="m 355.20024,1086.2384 c -119,64 -155,279 -61,365 156,145 374,40 377,-181 2,-138 -193,-251 -316,-184 z"
       id="path10" />
    <path
       d="m 532.20024,1138.2384 c 111,69 128,154 53,259 -120,167 -362,12 -287,-184 32,-85 153,-124 234,-75 z"
       id="path2025"
       style="fill:#ffffff" />
    <path
       d="m 412.20024,1179.2384 c -94,39 -79,201 19,209 44,4 62,-8 82,-56 42,-101 -15,-188 -101,-153 z m 79,44 c 6,9 7,19 3,23 -12,13 -82,-10 -85,-28 -6,-32 61,-28 82,5 z"
       id="path12" />
    <path
       d="m 836.20024,1150.2384 c -152,46 -147,280 8,336 67,23 106,18 147,-20 132.99996,-127 14.99996,-368 -155,-316 z"
       id="path14" />
    <path
       d="m 927.20024,1205.2384 c 87.99996,46 100.99996,145 28,222 -61,65 -178,-10 -178,-112 0,-96 73,-150 150,-110 z"
       id="path2912"
       style="fill:#ffffff" />
    <path
       d="m 832.20024,1256.2384 c -43,66 -7,167 53,148 59,-19 82,-48 82,-104 0,-63 -101,-96 -135,-44 z m 85,9 c 16,19 5,34 -20,28 -24,-6 -34,-19 -25,-33 9,-14 31,-12 45,5 z"
       id="path16" />
  </g>
</svg>
