<?xml version="1.0" encoding="UTF-8" standalone="no"?>
<!-- Created with Inkscape (http://www.inkscape.org/) -->
<svg id="svg2" xmlns:inkscape="http://www.inkscape.org/namespaces/inkscape" xmlns:rdf="http://www.w3.org/1999/02/22-rdf-syntax-ns#" xmlns="http://www.w3.org/2000/svg" sodipodi:docname="freedo.svg" height="612.03" sodipodi:version="0.32" width="626.39" version="1.1" inkscape:output_extension="org.inkscape.output.svg.inkscape" xmlns:cc="http://creativecommons.org/ns#" xmlns:dc="http://purl.org/dc/elements/1.1/" inkscape:version="0.48.2 r9819" xmlns:sodipodi="http://sodipodi.sourceforge.net/DTD/sodipodi-0.dtd">
 <defs id="defs4"></defs>
 <sodipodi:namedview id="base" fit-margin-left="0" inkscape:zoom="1.3381608" borderopacity="1.0" inkscape:current-layer="layer1" inkscape:cx="313.19605" inkscape:cy="306.01703" inkscape:window-maximized="1" showgrid="false" fit-margin-right="0" showguides="true" bordercolor="#666666" inkscape:window-x="0" inkscape:guide-bbox="true" inkscape:window-y="25" fit-margin-bottom="0" inkscape:window-width="1920" inkscape:pageopacity="0.0" inkscape:pageshadow="2" pagecolor="#ffffff" inkscape:document-units="px" inkscape:window-height="1002" fit-margin-top="0"/>
 <metadata id="metadata7">
  <rdf:RDF>
   <cc:Work rdf:about="">
    <dc:format>image/svg+xml</dc:format>
    <dc:type rdf:resource="http://purl.org/dc/dcmitype/StillImage"/>
    <dc:title/>
   </cc:Work>
  </rdf:RDF>
 </metadata>
 <g id="layer1" stroke="#000" inkscape:label="Capa 1" inkscape:groupmode="layer" transform="translate(-50.260749,-226.45365)">
  <path id="path3186" stroke-linejoin="round" d="m333.07,414.1,0.12836-49.512c-8.9665,13.823-57.004,44.11-67.163,54.373-20.165,19.538-70.66,27.155-96.265,41.796,8.9692,24.644,37.048,3.6398,31.838,40.898,12.627-1.5204,37.178-0.9689,54.539-25.005l76.922-62.55z" fill-rule="evenodd" sodipodi:nodetypes="ccccccc" inkscape:connector-curvature="0" stroke-linecap="butt" stroke-miterlimit="4" stroke-dasharray="none" stroke-width="12.62656021" fill="#a7d4ff"/>
  <path id="path3188" stroke-linejoin="round" d="m232.79,582.2c-6.739,15.448-22.245,15.372-37.903,15.03l-55.33-188.15c14.503-40.458,4.146-98.4-35.499-108.79,14.794-31.468,36.448-20.515,55.586-25.127,35.73,7.3553,76.764,111.53,28.401,141.42l43.535,146.24,1.2033,19.373z" fill-rule="evenodd" sodipodi:nodetypes="cccccccc" inkscape:connector-curvature="0" stroke-linecap="butt" stroke-miterlimit="4" stroke-dasharray="none" stroke-width="12.62656021" fill="#b17020"/>
  <path id="path2402" stroke-linejoin="round" d="m437.78,732.74c-0.80744,44.089,39.88,93.401,67.723,99.438,7.2694-11.974,11.327-23.049,11.35-34.797,16.851,9.1518,25.622,10.17,41.692,11.243,4.1636-13.72,4.132-22.66-6.3812-36.128,14.98,1.8463,29.566-2.2262,41.057-7.7191-8.0891-22.058-76.86-48.018-104.1-52.763-37.553,23.904-88.563-29.094-51.342,20.725z" fill-rule="evenodd" sodipodi:nodetypes="cccccccc" inkscape:connector-curvature="0" stroke-linecap="butt" stroke-miterlimit="4" stroke-dasharray="none" stroke-width="12.62656021" fill="#fab74f"/>
  <path id="path2400" stroke-linejoin="round" d="m287.36,713.87c-38.908-3.095-82.326,19.94-103.86,38.46,8.1595,3.8951,24.38,13.928,40.49,12.11-8.4116,12.34-8.6164,23.244-7.0447,33.423,10.375,2.3435,28.57,0.34376,42.277-3.3177-6.2233,12.58-7.8592,23.29-4.0871,34.81,18.597,0.3586,78.198-35.996,101.74-88.976-50.852-13.951-42.41,9.6924-69.524-26.509z" fill-rule="evenodd" sodipodi:nodetypes="cccccccc" inkscape:connector-curvature="0" stroke-linecap="butt" stroke-miterlimit="4" stroke-dasharray="none" stroke-width="12.62656021" fill="#f8b44d"/>
  <path id="path2396" stroke-linejoin="round" d="m286.46,358.55s7.4054-63.426,34.258-90.681c67.03-68.036,153.66-30.165,189.96,53.572,33.687,77.703,98.23,305.37,45.31,380.6-56.143,86.107-181.59,87.084-264.15,60.374-25.078-5.9564-57.47-45.786-63.53-69.359-14.402-55.9-26.97-133.29,28.078-249.37l15.83-39.624,14.243-45.509z" fill-rule="evenodd" sodipodi:nodetypes="csscccccc" inkscape:connector-curvature="0" stroke-linecap="butt" stroke-miterlimit="4" stroke-dasharray="none" stroke-width="12.62656021" fill="#a7d4ff"/>
  <path id="path2398" stroke-linejoin="round" d="m274.14,750.58c-45.245-116.77-35.317-287.96,101.73-284.03,135.79,3.8944,148.81,224.95,68.224,304.55-55.333,16.462-145.56,3.1021-169.96-20.517z" fill-rule="evenodd" sodipodi:nodetypes="czcc" inkscape:connector-curvature="0" stroke-linecap="butt" stroke-miterlimit="4" stroke-dasharray="none" stroke-width="12.62656021" fill="#FFF"/>
  <path id="path2406" stroke-linejoin="round" d="m504.02,369.33c3.7758,24.05,5.4555,46.895,18.709,76.396-9.0254,24.448-3.4527,35.91,3.0761,46.52,13.647,20.046,17.786,40.399,17.684,60.89-0.67639,21.09-8.0466,35.518,9.9867,60.44,12.987,15.274,28.094,29,37.601,50.467,12.993-17.703,16.185-37.968,16.954-58.867-16.251-15.97-30.552-34.44-27.623-62.375-3.2651,27.765,11.155,47.372,21.245,55.655,19.276,10.945,17.803,10.017,41.484,14.982-5.695-27.008,3.3127-31.087,1.0477-48.034-2.8923-21.641-11.807-47.693-20.127-69.353l-14.211-23.894c-19.141-34.408-33.295-206.08-88.536-167.47-15.485,20.979-16.929,42.778-17.291,64.64z" fill-rule="evenodd" sodipodi:nodetypes="ccccccccccscccc" inkscape:connector-curvature="0" stroke-linecap="butt" stroke-miterlimit="4" stroke-dasharray="none" stroke-width="12.62656021" fill="#FFF"/>
  <path id="path2404" stroke-linejoin="round" d="m553.38,383.79c21.947,45.692,52.524,91.887,84.613,138.17,0,0,19.165-19.425,24.499-29.659,4.0732-7.8155,7.8494-28.309,7.8494-28.309-12.092-28.148-51.466-84.949-82.338-111.01-39.626-27.738-42.364-5.557-34.624,30.803z" fill-rule="evenodd" sodipodi:nodetypes="ccsscc" inkscape:connector-curvature="0" stroke-linecap="butt" stroke-miterlimit="4" stroke-dasharray="none" stroke-width="12.62656021" fill="#a7d4ff"/>
  <path id="path2408" stroke-linejoin="round" d="m349.01,340c-17.403,9.4489-39.629,38.205-26.234,89.746,33.993,23.369,141.93-35.447,96.737-84.586-21.084-14.879-48.832-13.241-70.503-5.1604z" fill-rule="evenodd" sodipodi:nodetypes="cccc" inkscape:connector-curvature="0" stroke-linecap="butt" stroke-miterlimit="4" stroke-dasharray="none" stroke-width="12.09115696" fill="#f8b44d"/>
  <path id="path2412" stroke-linejoin="round" d="m362.41,284.73c-4.9485,9.0689-6.2041,13.426-5.6481,26.262,0.46772,5.6958,5.5842,5.7384,9.3823,0.99199,0.93479-12.667,1.111-12.545,5.4548-24.812-1.4161-5.6004-6.4604-4.8858-9.1891-2.4418z" fill-rule="evenodd" sodipodi:nodetypes="ccccc" inkscape:connector-curvature="0" stroke-linecap="butt" stroke-miterlimit="4" stroke-dasharray="none" stroke-width="12.62656021" fill="#000001"/>
  <path id="path3190" stroke-linejoin="round" d="m124.53,509.24c11.541,26.397,49.527,14.927,57.928,12.653,18.481-5.9812,10.986-32.108-5.2128-35.394-11.729-2.1186-11.821,0.65605-23.512,4.8617l8.832-4.7138c-3.5407-11.8-5.3045-15.511-8.1118-25.726-18.217-1.2405-39.947,29.492-29.923,48.319z" fill-rule="evenodd" sodipodi:nodetypes="ccccccc" inkscape:connector-curvature="0" stroke-linecap="butt" stroke-miterlimit="4" stroke-dasharray="none" stroke-width="12.62656021" fill="#a7d4ff"/>
  <path id="path3192" stroke-linejoin="round" d="m410.12,285.38c-4.9485,9.0689-6.2041,13.426-5.6481,26.262,0.4677,5.6958,5.5842,5.7385,9.3823,0.992,0.9348-12.667,1.111-12.545,5.4548-24.812-1.4161-5.6004-6.4604-4.8857-9.189-2.4418z" fill-rule="evenodd" sodipodi:nodetypes="ccccc" inkscape:connector-curvature="0" stroke-linecap="butt" stroke-miterlimit="4" stroke-dasharray="none" stroke-width="12.62656021" fill="#000001"/>
  <path id="path3198" stroke-linejoin="round" d="m120.37,280.52c51.392-8.2013,70.291,80.923,61.033,109.43" sodipodi:nodetypes="cc" inkscape:connector-curvature="0" stroke-linecap="round" stroke-miterlimit="4" stroke-dasharray="none" stroke-width="12.62656021" fill="none"/>
  <g id="g2406" stroke-linecap="butt" transform="matrix(0.999654,0.0262921,-0.0262921,0.999654,28.3571,-21.4362)">
   <path id="path3200" stroke-linejoin="round" d="M102.79,314.27,51.347,324.38c-32.626,9.4905-1.2487,130.23,33.433,124.55l58.266-24.95c14.409-64.258-19.309-107.42-40.256-109.71z" fill-rule="evenodd" sodipodi:nodetypes="ccccc" inkscape:connector-curvature="0" stroke-miterlimit="4" stroke-dasharray="none" stroke-width="12.62656021" fill="#ececec"/>
   <path id="path3202" stroke-linejoin="miter" d="m53.694,327.34c28.462-6.729,56.553,102.79,28.981,122.75l11.445-4.6686" sodipodi:nodetypes="ccc" inkscape:connector-curvature="0" stroke-width="3.08632779px" fill="none"/>
   <path id="path3206" stroke-linejoin="miter" d="M71.623,335.88,123.79,325.53" sodipodi:nodetypes="cc" inkscape:connector-curvature="0" stroke-width="3.15664005px" fill="none"/>
   <path id="path3208" stroke-linejoin="miter" d="M79.8,349.28,130.46,338.89" sodipodi:nodetypes="cc" inkscape:connector-curvature="0" stroke-width="3.15664005px" fill="none"/>
   <path id="path3210" stroke-linejoin="miter" d="M85.264,364.51,135.22,354.09" sodipodi:nodetypes="cc" inkscape:connector-curvature="0" stroke-width="3.15664005px" fill="none"/>
   <path id="path3212" stroke-linejoin="miter" d="M91.139,380.43,140.33,369.61" sodipodi:nodetypes="cc" inkscape:connector-curvature="0" stroke-width="3.15664005px" fill="none"/>
   <path id="path3214" stroke-linejoin="miter" d="M92.825,396.52,144.29,383.62" sodipodi:nodetypes="cc" inkscape:connector-curvature="0" stroke-width="3.15664005px" fill="none"/>
   <path id="path3216" stroke-linejoin="miter" d="M94.128,411.7,145.12,397.2" sodipodi:nodetypes="cc" inkscape:connector-curvature="0" stroke-width="3.15664005px" fill="none"/>
   <path id="path3220" stroke-linejoin="miter" d="M92.948,426.56,144.34,409.27" sodipodi:nodetypes="cc" inkscape:connector-curvature="0" stroke-width="3.15664005px" fill="none"/>
  </g>
  <path id="path3189" stroke-linejoin="round" d="m547.9,430.4c2.4453,16.682,6.2934,22.828,10.727,30.711,4.4341,7.8829,9.9269,16.175,10.706,16.392" sodipodi:nodetypes="czc" inkscape:connector-curvature="0" stroke-linecap="round" stroke-miterlimit="4" stroke-dasharray="none" stroke-width="12" fill="none"/>
  <path id="path3191" stroke-linejoin="round" d="m570.17,498.41c0.49767,1.0644,2.596,7.1616,2.38,15.377" inkscape:connector-curvature="0" stroke-linecap="round" stroke-miterlimit="4" stroke-dasharray="none" stroke-width="12" fill="none"/>
 </g>
</svg>
