<svg xmlns="http://www.w3.org/2000/svg" viewBox="0 0 700 250" height="250" width="700"><path d="M607.74627 105.48478h-21.73334c-6.93733 0-12.584-5.648002-12.584-12.588001 0-7.578667 7.02-12.090667 13.95334-12.637334 8.536-.677333 31.92799-.192 40.21999.04667 9.49334.346667 17.64534-7.292 17.92267-16.909333.28-9.621333-7.292-17.642666-16.908-17.923999-3.23733-.09467-32.02133-.882667-43.968.04667-26.26 2.062667-46.06666 22.429333-46.06666 47.377333 0 26.154664 21.27733 47.434664 47.43066 47.434664h21.73334c7.77866 0 14.35066 6.71734 14.35066 14.66787 0 9.124-7.86933 13.80679-15.672 14.39893-10.01466.76253-40.05333.23026-50.77733-.0452-9.624-.23494-17.61333 7.3624-17.85867 16.9796-.24 9.6204 7.35867 17.6136 16.98 17.85893 2.63734.064 18.52134.45053 33.19067.45053 8.29467 0 16.2-.124 21.10533-.49586 27.74267-2.10947 47.87867-22.77614 47.87867-49.14693 0-27.30253-22.07067-49.51453-49.19733-49.51453M447.2356 170.38997c-24.92666 0-45.20533-20.27986-45.20533-45.20653 0-24.92666 20.27867-45.205328 45.20533-45.205328 24.92667 0 45.20533 20.278668 45.20533 45.205328 0 24.92667-20.27866 45.20653-45.20533 45.20653zm0-124.950524c-44.04133 0-79.744 35.702666-79.744 79.743994 0 44.04146 35.70267 79.7456 79.744 79.7456 44.04267 0 79.744-35.70414 79.744-79.7456 0-44.041328-35.70133-79.743994-79.744-79.743994M240.98361 172.8473c-12.796 0-23.208-10.41052-23.208-23.20786 0-12.79733 10.412-23.20666 23.208-23.20666 12.79733 0 23.208 10.40933 23.208 23.20666 0 12.79734-10.41067 23.20786-23.208 23.20786zm0-78.495855c-30.53467 0-55.288 24.753335-55.288 55.287995 0 30.53493 24.75333 55.2896 55.288 55.2896 9.51466 0 18.468-2.40574 26.28533-6.63907 2.90533 4.01613 7.61733 6.63907 12.952 6.63907 8.83067 0 15.98933-7.15894 15.98933-15.9896v-36.82293c.036-.82107.0627-1.6464.0627-2.47707 0-30.53466-24.75333-55.287995-55.28933-55.287995m-94.456-.03867c13.496 0 24.436-10.939999 24.436-24.435999 0-13.496-10.94-24.437333-24.436-24.437333s-24.43733 10.941333-24.43733 24.437333c0 13.496 10.94133 24.435999 24.43733 24.435999m-23.676 7.873335c-5.74936-8.210665-17.0667-10.206665-25.277362-4.455998-8.211066 5.747998-10.2064 17.065328-4.457467 25.275998l51.942799 74.18119c5.74933 8.21094 17.06533 10.2052 25.27733 4.45734 8.21067-5.75054 10.20667-17.06667 4.45734-25.27707l-51.94267-74.18146M61.566807 45.439446c-10.223467 0-18.5104 8.286667-18.5104 18.509333V186.4181c0 10.22294 8.286933 18.51094 18.5104 18.51094 10.223466 0 18.510399-8.288 18.510399-18.51094V63.948779c0-10.222666-8.286933-18.509333-18.510399-18.509333M331.66494 94.351445c-10.16933 0-18.412 8.242665-18.412 18.411995v73.752c0 10.16933 8.24267 18.4136 18.412 18.4136 10.168 0 18.41067-8.24427 18.41067-18.4136v-73.752c0-10.16933-8.24267-18.411995-18.41067-18.411995" fill="#6f02b5"/></svg>
