<?xml version="1.0" encoding="UTF-8" standalone="no"?>
<svg
   xmlns:dc="http://purl.org/dc/elements/1.1/"
   xmlns:cc="http://creativecommons.org/ns#"
   xmlns:rdf="http://www.w3.org/1999/02/22-rdf-syntax-ns#"
   xmlns:svg="http://www.w3.org/2000/svg"
   xmlns="http://www.w3.org/2000/svg"
   version="1.1"
   width="670"
   height="138"
   id="svg2"
   style="display:inline">
  <title
     id="title2860">OpenBSD logo</title>
  <defs
     id="defs4" />
  <metadata
     id="metadata7">
    <rdf:RDF>
      <cc:Work
         rdf:about="">
        <dc:format>image/svg+xml</dc:format>
        <dc:type
           rdf:resource="http://purl.org/dc/dcmitype/StillImage" />
        <dc:title>OpenBSD logo</dc:title>
        <dc:description>Converted from pdf:
http://www.openbsd.org/art4.html
Cartoon Puffy with logo below svg</dc:description>
        <dc:source>http://www.openbsd.org/art/puffy/puflogv.pdf</dc:source>
      </cc:Work>
    </rdf:RDF>
  </metadata>
  <path
     d="m 151.62485,111.18142 c -1.4236,2.89319 -3.97284,9.40044 1.5,9.09375 159.51765,0.67789 319.04238,0.13956 478.56277,0.3125 7.64583,0 15.29167,0 22.93751,0 1.44715,-3.06765 4.26189,-8.42322 1.21875,-10.4375 -167.89594,-0.0352 -335.79186,-0.0889 -503.68778,-0.15625 l -0.40837,0.91282 -0.12288,0.27468 z"
     id="path6235"
     style="fill:#cf4229" />
  <path
     d="m 355.59371,12.49392 c -0.99255,3.47381 0.57066,7.2532 4.59375,6.6875 3.76201,0.0903 9.83237,0.87997 9.21876,6.0625 0.0279,21.88859 0.73458,44.13711 -0.25,65.84375 -2.12397,5.40735 -11.04074,2.08889 -13.52636,5.65459 -0.92864,3.21456 -0.14847,7.8878 4.15061,6.94634 20.86772,-0.0873 41.91785,0.51438 62.68828,-0.63218 13.5436,-1.71052 29.32449,-6.09876 34.90627,-19.90625 3.87695,-10.78017 -3.15609,-22.03462 -12.96876,-26.53125 -2.2417,-1.6023 -7.15078,-2.45526 -8.0625,-3.5625 9.92325,-2.73773 19.19587,-12.58889 16.03125,-23.5 -3.14518,-12.72746 -17.65365,-16.76745 -29.00001,-18.375 -22.52511,-1.23876 -45.1321,-0.2905 -67.68754,-0.59375 l -0.0491,0.99879 -0.0446,0.90746 z m 50.37503,7.03125 c 6.91897,-0.97538 14.75061,3.59833 14.56251,11.21875 0.6755,6.42312 0.38373,15.43926 -7.31251,17.375 -3.98548,1.32203 -8.25358,1.27578 -12.40625,1.5625 0.58695,-9.6185 -0.8309,-19.86474 0.875,-29.1875 1.22601,-0.75333 2.74328,-1.06689 4.28125,-0.96875 z m -3.96875,39.59375 c 8.53178,-0.29289 19.66826,1.85816 22.21876,11.4375 2.48853,8.37111 0.91501,20.34336 -9.06251,22.875 -4.25653,0.41726 -11.04194,2.6336 -13.90625,-1.5625 -0.54821,-10.89517 -0.2561,-21.83733 -0.4375,-32.75 l 1,0 0.1875,0 z"
     id="path6207"
     style="fill:#cf4229" />
  <path
     d="m 173.78107,50.83379 c -0.71006,0 -1.79555,0.17636 -2.78125,0.4375 -0.9857,0.26114 -1.86905,0.58783 -2.12501,0.84375 -0.10947,0.10951 -0.36499,0.21875 -0.59375,0.21875 -0.52813,0 -4.32452,3.00398 -6.03125,4.78125 -1.21284,1.26296 -3.64725,4.63487 -3.65625,5.0625 -0.002,0.1049 -0.43476,1.01033 -0.9375,2 -1.33196,2.62202 -2.96875,6.46381 -2.96875,6.96875 0,0.24016 -0.24869,0.86067 -0.5625,1.375 -0.3138,0.51429 -0.86927,1.88939 -1.21875,3.03125 -0.34948,1.14184 -0.73541,2.19728 -0.875,2.375 -0.13958,0.17769 -0.57102,1.28289 -0.93751,2.4375 -0.36647,1.15461 -0.91698,2.76903 -1.21875,3.59375 -0.70251,1.91992 -1.29498,3.84308 -1.71875,5.46875 -0.42377,1.62567 -0.65625,2.94372 -0.65625,3.71875 0,0.87468 0.0417,1.44479 0.3125,1.9375 0.27084,0.49271 0.76207,0.92421 1.59375,1.5625 0.37962,0.29134 0.67997,0.43807 1.21875,0.53125 0.53878,0.0932 1.32006,0.125 2.62501,0.125 1.41992,0 2.17304,-0.0115 2.84375,-0.15625 0.67071,-0.1448 1.25058,-0.40845 2.28125,-0.9375 1.18745,-0.60955 2.57062,-1.45364 3.0625,-1.875 1.61321,-1.38194 4.9375,-4.82288 4.9375,-5.09375 0,-0.14578 0.23629,-0.43741 0.5,-0.65625 0.5775,-0.47924 3.09376,-4.32406 3.09376,-4.71875 0,-0.15355 0.21759,-0.44782 0.46875,-0.65625 0.25115,-0.2084 1.21249,-1.96017 2.125,-3.875 0.91251,-1.91482 1.88775,-3.95395 2.1875,-4.53125 0.29975,-0.57731 0.63475,-1.44266 0.75,-1.9375 0.11524,-0.49483 0.52729,-1.65531 0.90625,-2.5625 0.37896,-0.9072 0.83344,-2.18397 1,-2.84375 0.16656,-0.65978 0.6502,-2.42322 1.09375,-3.90625 0.53825,-1.79965 0.84835,-3.89312 0.90625,-5.75 0.029,-0.92844 0.004,-1.80362 -0.0937,-2.53125 -0.0978,-0.72763 -0.27088,-1.30409 -0.5,-1.6875 -0.46328,-0.77528 -1.22069,-1.47396 -2.125,-1.96875 -0.90431,-0.49479 -1.95257,-0.78125 -2.90625,-0.78125 z"
     id="path6205"
     style="fill:#cf4229" />
  <path
     d="m 173.78107,50.83379 c 0.95368,0 2.00194,0.28646 2.90625,0.78125 0.90431,0.49479 1.66172,1.19347 2.125,1.96875 0.22912,0.38341 0.40215,0.95987 0.5,1.6875 0.0978,0.72763 0.1227,1.60281 0.0937,2.53125 -0.0579,1.85688 -0.368,3.95035 -0.90625,5.75 -0.44355,1.48303 -0.92719,3.24647 -1.09375,3.90625 -0.16656,0.65978 -0.62104,1.93655 -1,2.84375 -0.37896,0.90719 -0.79101,2.06767 -0.90625,2.5625 -0.11525,0.49484 -0.45025,1.36019 -0.75,1.9375 -0.29975,0.5773 -1.27499,2.61643 -2.1875,4.53125 -0.91251,1.91483 -1.87385,3.6666 -2.125,3.875 -0.25116,0.20843 -0.46875,0.5027 -0.46875,0.65625 0,0.39469 -2.51626,4.23951 -3.09376,4.71875 -0.26371,0.21884 -0.5,0.51047 -0.5,0.65625 0,0.27087 -3.32429,3.71181 -4.9375,5.09375 -0.49188,0.42136 -1.87505,1.26545 -3.0625,1.875 -1.03067,0.52905 -1.61054,0.7927 -2.28125,0.9375 -0.67071,0.1448 -1.42383,0.15625 -2.84375,0.15625 -1.30495,0 -2.08623,-0.0318 -2.62501,-0.125 -0.53878,-0.0932 -0.83913,-0.23991 -1.21875,-0.53125 -0.83168,-0.63829 -1.32291,-1.06979 -1.59375,-1.5625 -0.27084,-0.49271 -0.3125,-1.06282 -0.3125,-1.9375 0,-0.77503 0.23248,-2.09308 0.65625,-3.71875 0.42377,-1.62567 1.01624,-3.54883 1.71875,-5.46875 0.30177,-0.82472 0.85228,-2.43914 1.21875,-3.59375 0.36649,-1.15461 0.79793,-2.25981 0.93751,-2.4375 0.13959,-0.17772 0.52552,-1.23316 0.875,-2.375 0.34948,-1.14186 0.90495,-2.51696 1.21875,-3.03125 0.31381,-0.51433 0.5625,-1.13484 0.5625,-1.375 0,-0.50494 1.63679,-4.34673 2.96875,-6.96875 0.50274,-0.98967 0.93542,-1.8951 0.9375,-2 0.009,-0.42763 2.44341,-3.79954 3.65625,-5.0625 1.70673,-1.77727 5.50312,-4.78125 6.03125,-4.78125 0.22876,0 0.48428,-0.10924 0.59375,-0.21875 0.25596,-0.25592 1.13931,-0.58261 2.12501,-0.84375 0.9857,-0.26114 2.07119,-0.4375 2.78125,-0.4375 z"
     id="path6203"
     style="fill:#cf4229" />
  <path
     d="m 248.71861,45.70879 c -0.703,0 -2.06977,0.42348 -3.3125,0.9375 -1.24273,0.51402 -2.3626,1.12653 -2.5625,1.5 -0.1676,0.31321 -0.45585,0.59075 -0.65625,0.59375 -0.2004,0.003 -0.9027,0.59556 -1.5625,1.34375 -0.65991,0.74819 -1.51586,1.74257 -1.90626,2.1875 -0.8237,0.93874 -2.7624,3.72408 -3.375,4.875 -0.2318,0.43554 -0.9307,1.7861 -1.5625,3 -0.6317,1.21391 -1.2856,2.3433 -1.4375,2.5 -0.1518,0.15669 -0.28125,0.47352 -0.28125,0.6875 0,0.21401 -0.3982,1.21867 -0.875,2.25 -0.4767,1.03135 -0.916,2.21263 -1,2.625 -0.0841,0.41236 -0.44275,1.49189 -0.78125,2.375 l -0.59375,1.59375 0.65625,-0.1875 c 0.3632,-0.10347 1.2576,-0.31829 2,-0.46875 0.7423,-0.15046 2.01895,-0.55507 2.84375,-0.90625 0.8249,-0.35118 1.76385,-0.74619 2.09375,-0.875 1.4029,-0.5477 5.16656,-2.54311 5.71876,-3.03125 0.33,-0.29162 0.76365,-0.5628 0.96875,-0.625 0.4189,-0.12709 1.42449,-0.94329 2.5,-1.96875 1.07551,-1.02546 2.2239,-2.26752 2.96875,-3.25 0.8313,-1.09655 1.57281,-2.31146 2.1875,-3.5625 0.61469,-1.25104 1.08965,-2.55304 1.4375,-3.78125 0.34785,-1.22821 0.56296,-2.37819 0.59375,-3.40625 0.0308,-1.02806 -0.101,-1.91189 -0.4375,-2.5625 -0.26465,-0.51176 -0.82049,-0.9842 -1.46875,-1.3125 -0.64826,-0.3283 -1.41035,-0.53125 -2.15625,-0.53125 z"
     id="path6197"
     style="fill:#cf4229" />
  <path
     d="m 248.71861,45.70879 c 0.7459,0 1.50799,0.20295 2.15625,0.53125 0.64826,0.3283 1.2041,0.80074 1.46875,1.3125 0.3365,0.65061 0.46829,1.53444 0.4375,2.5625 -0.0308,1.02806 -0.2459,2.17804 -0.59375,3.40625 -0.34785,1.22821 -0.82281,2.53021 -1.4375,3.78125 -0.61469,1.25104 -1.3562,2.46595 -2.1875,3.5625 -0.74485,0.98248 -1.89324,2.22454 -2.96875,3.25 -1.07551,1.02546 -2.0811,1.84166 -2.5,1.96875 -0.2051,0.0622 -0.63875,0.33338 -0.96875,0.625 -0.5522,0.48814 -4.31586,2.48355 -5.71876,3.03125 -0.3299,0.12881 -1.26885,0.52382 -2.09375,0.875 -0.8248,0.35118 -2.10145,0.75579 -2.84375,0.90625 -0.7424,0.15046 -1.6368,0.36528 -2,0.46875 l -0.65625,0.1875 0.59375,-1.59375 c 0.3385,-0.88311 0.69715,-1.96264 0.78125,-2.375 0.084,-0.41237 0.5233,-1.59365 1,-2.625 0.4768,-1.03133 0.875,-2.03599 0.875,-2.25 0,-0.21398 0.12945,-0.53081 0.28125,-0.6875 0.1519,-0.1567 0.8058,-1.28609 1.4375,-2.5 0.6318,-1.2139 1.3307,-2.56446 1.5625,-3 0.6126,-1.15092 2.5513,-3.93626 3.375,-4.875 0.3904,-0.44493 1.24635,-1.43931 1.90626,-2.1875 0.6598,-0.74819 1.3621,-1.34102 1.5625,-1.34375 0.2004,-0.003 0.48865,-0.28054 0.65625,-0.59375 0.1999,-0.37347 1.31977,-0.98598 2.5625,-1.5 1.24273,-0.51402 2.6095,-0.9375 3.3125,-0.9375 z"
     id="path6195"
     style="fill:#cf4229" />
  <path
     d="m 540.34381,12.49392 c -1.14083,3.45674 0.69755,7.37167 4.71191,6.80434 3.71199,-0.0121 9.42594,1.2226 8.28065,6.13288 -0.0393,22.03419 0.56766,44.39016 -0.3363,66.25028 -2.84102,3.76958 -8.38619,3.33606 -12.56251,3.9375 -0.95974,3.66675 -0.54745,9.32439 4.62501,8.09375 20.28269,-0.2435 40.69999,0.76441 60.90628,-0.78125 18.25654,-2.22773 37.64815,-10.95029 45.21014,-28.79256 4.57592,-10.26731 4.96066,-22.68543 1.09504,-33.22521 C 645.72667,22.96638 626.5135,13.57172 608.5626,11.36892 586.25591,9.64116 563.72902,11.05908 541.34381,10.58767 c -1.64966,-0.74724 -0.66559,1.27197 -1,1.90625 z m 51.31253,7.40625 c 10.49073,-0.47834 20.85881,5.18572 25.06344,14.89877 5.60992,11.56838 5.17178,25.14168 3.09283,37.56998 -1.75466,10.57964 -10.42327,20.27831 -21.75001,21 -4.03467,-0.28014 -9.99735,2.22699 -12.78126,-1.6875 0.36206,-23.53147 -0.71329,-47.34148 0.53125,-70.71875 1.90695,-0.56032 3.82366,-1.11419 5.84375,-1.0625 z"
     id="path6169"
     style="fill:#cf4229" />
  <path
     d="m 531.75006,8.40017 c -2.7257,-0.4464 -3.85743,2.32824 -4.875,3.84375 -8.87134,0.3826 -17.12796,-4.67465 -26.15627,-3.6875 -15.00818,-0.93036 -32.81694,4.71349 -38.00002,20.21875 -2.77967,9.05155 -1.07758,19.88338 6.625,26.03125 12.45374,11.79199 30.68947,13.67812 44.78128,22.4375 7.22526,4.74599 3.13286,15.92657 -4.3125,17.84375 -12.41101,3.98742 -27.66619,-0.38015 -34.50002,-12.03125 -3.73205,-3.90323 -3.179,-10.24938 -6.93751,-13.875 -3.43347,-1.45493 -9.29531,-0.6574 -8.07044,4.40548 0.0407,10.3656 -1.01274,21.06181 0.50794,31.25077 1.94819,2.14929 6.9205,1.81408 8.59375,0.1875 1.09975,-5.92138 7.54369,-2.02085 11.06251,-1.375 17.34642,4.12098 38.04529,4.16374 52.53128,-7.53125 10.10577,-8.00098 12.8969,-23.56474 5.34375,-34.25 -8.92518,-12.88873 -25.85769,-15.2153 -39.15627,-21.71875 -7.08831,-2.07938 -18.84378,-7.72322 -13.25001,-16.9375 6.63395,-7.74852 18.9812,-6.1382 27.28127,-1.96875 7.71942,4.10269 12.1897,11.7849 15.84376,19.28125 3.06978,2.58055 10.36704,1.56636 8.99147,-3.74974 -0.0213,-8.92976 0.59502,-17.96392 -0.30397,-26.84401 -1.45047,-1.74514 -3.95448,-1.56556 -6,-1.53125 z"
     id="path6151"
     style="fill:#cf4229" />
  <path
     d="m 136.15605,65.36504 c 0.14024,-0.4423 0.25662,-0.77458 0.375,-1.1875 0.28374,-0.98967 0.76053,-2.48778 1.0625,-3.3125 0.30196,-0.82473 0.72488,-2.1015 0.90625,-2.84375 0.18136,-0.74225 0.66018,-2.55085 1.09375,-4 l 0.8125,-2.625 -0.625,-0.8125 c -0.39184,-0.52799 -0.93969,-0.90845 -1.8125,-1.1875 -0.42165,-0.13481 -1.21872,-0.1854 -1.8125,-0.28125 l 0,16.25 z"
     id="path6149"
     style="fill:#cf4229" />
  <path
     d="m 84.93731,9.46267 c -24.997124,0.73916 -48.456361,16.18695 -60.531284,37.6875 -6.926774,12.79506 -11.2298,30.29732 -2.000002,43.125 10.646665,15.31756 31.900196,17.88626 49.140708,14.66796 24.880924,-4.53434 46.797308,-22.73709 55.734348,-46.41796 5.13546,-13.44929 3.49146,-31.24209 -8.78125,-39.875 -9.15602,-7.62451 -21.789754,-9.8959 -33.56252,-9.1875 z m 2.125001,9.375 C 95.094715,18.0049 102.63622,24.82693 101.18732,33.11892 100.34711,47.61153 95.013795,61.63763 88.218561,74.27517 82.170088,85.29315 72.053562,97.32777 58.156045,96.43142 50.570527,96.67583 45.200981,89.33104 45.781038,82.02517 47.820798,63.15541 54.775667,43.88985 66.9373,29.30642 72.128512,23.52623 78.968366,18.7475 87.062311,18.83767 Z"
     id="path5937"
     style="fill:#f2ca30" />
  <path
     d="m 83.749769,11.42754 c -0.37028,0.006 -0.48978,0.0839 -0.8125,0.0937 1.34044,-0.0449 2.517731,-0.0927 5.000002,-0.0937 -1.729801,7.5e-4 -3.072491,-0.0178 -4.187502,0 z"
     id="path5901"
     style="fill:#f2ca30" />
  <path
     d="m 161.2186,38.40017 c -10.475,1.78172 -21.1643,2.66141 -31.78127,3.875 -0.44685,5.07075 -0.75744,9.95237 5.75001,8.65625 2.71154,-0.32119 3.91889,1.29219 2.125,3.6875 -6.33324,20.94168 -13.08178,41.97929 -20.21876,62.75 -0.98113,4.5263 -5.3982,4.22732 -9.00001,4.53125 -3.44557,1.80084 -2.4638,9.55419 2.28125,8.40625 13.32051,0.1253 26.86055,0.7791 40.06252,-0.375 3.12205,-2.61309 1.51293,-9.66103 -3.46875,-8.28125 -2.65215,-0.0933 -7.06105,-0.19834 -5.03125,-4.1875 1.14815,-4.61647 2.90639,-9.68068 4.53125,-13.8125 16.45763,5.74145 34.10627,-3.94629 44.40628,-16.46875 8.76448,-10.38789 15.71502,-25.45573 10.5625,-38.96875 -5.38808,-11.4489 -21.53189,-12.3077 -31.50001,-6.8125 -1.72256,0.60659 -6.11844,3.17797 -5.18751,3 2.10245,-3.25673 0.8523,-6.94442 -3.53125,-6 z"
     id="path5893"
     style="fill:#f2ca30" />
  <path
     d="m 246.8749,38.36892 c -21.00101,2.25515 -40.83119,19.00599 -44.44581,40.11978 -1.81046,9.79522 2.86048,20.4035 12.35204,23.88022 14.65772,6.69677 33.34944,2.01478 43.12502,-10.65625 2.34391,-2.3659 6.94575,-7.66497 2.03126,-9.96875 -3.68397,-2.99504 -8.26034,-0.77292 -10.34376,2.96875 -4.3613,5.32958 -13.82395,10.07106 -19.71876,4.4375 -1.79788,-2.60082 -2.05707,-6.83049 -0.78125,-9.40625 14.72196,-2.43273 31.47905,-6.737 39.84377,-20.15625 4.83347,-7.34428 0.4155,-17.82119 -8.03125,-19.875 -4.44829,-1.87767 -9.3241,-1.34102 -14.03126,-1.34375 z"
     id="path5891"
     style="fill:#f2ca30" />
  <path
     d="m 310.59368,38.36892 c -10.78027,2.21808 -21.863,2.61007 -32.68751,4.09375 -2.56059,2.32146 -1.87842,8.77592 2.5625,8.25 2.24875,0.11777 7.04342,0.002 4.1591,3.71047 -4.45593,15.69899 -11.4528,30.95365 -15.47161,46.88328 1.47506,4.6069 8.41456,1.45282 11.87493,2.4405 4.34908,-1.23387 12.51963,2.84366 13.30618,-3.33198 5.71942,-16.35493 12.21773,-34.06276 26.1472,-45.07508 1.39925,-1.08824 6.15493,-4.07507 6.42172,-1.47094 -4.77116,12.87539 -11.53987,24.92865 -13.78125,38.625 -1.33304,7.12735 5.29236,12.91965 12.15625,12.40625 12.69942,1.05654 23.12557,-8.21132 29.34377,-18.34375 1.46409,-3.85783 -3.8999,-5.78151 -6.84375,-5.46875 -3.42515,2.91183 -5.74306,7.15589 -9.50001,9.34375 4.01542,-12.82369 11.76588,-24.65003 13.56961,-38.12258 1.6243,-7.75997 -5.34681,-15.1169 -13.16293,-13.88783 -11.55254,-1.49788 -21.43665,6.23194 -28.62545,14.29166 0.82359,-4.47652 5.67,-9.2601 3.31251,-13.8125 -0.84166,-0.52666 -1.80988,-0.6404 -2.78126,-0.53125 z"
     id="path5889"
     style="fill:#f2ca30" />
  <path
     d="m 248.71861,45.70879 c 1.4918,0 3.0957,0.82023 3.625,1.84375 1.346,2.60244 -0.45605,8.92629 -3.78125,13.3125 -1.4897,1.96496 -4.63095,4.96456 -5.46875,5.21875 -0.2051,0.0622 -0.63875,0.33338 -0.96875,0.625 -0.5522,0.48814 -4.31586,2.48355 -5.71876,3.03125 -0.3299,0.12881 -1.26885,0.52382 -2.09375,0.875 -0.8248,0.35118 -2.10145,0.75579 -2.84375,0.90625 -0.7424,0.15046 -1.6368,0.36528 -2,0.46875 l -0.65625,0.1875 0.59375,-1.59375 c 0.3385,-0.88311 0.69715,-1.96264 0.78125,-2.375 0.084,-0.41237 0.5233,-1.59365 1,-2.625 0.4768,-1.03133 0.875,-2.03599 0.875,-2.25 0,-0.21398 0.12945,-0.53081 0.28125,-0.6875 0.1519,-0.1567 0.8058,-1.28609 1.4375,-2.5 0.6318,-1.2139 1.3307,-2.56446 1.5625,-3 0.6126,-1.15092 2.5513,-3.93626 3.375,-4.875 0.3904,-0.44493 1.24635,-1.43931 1.90626,-2.1875 0.6598,-0.74819 1.3621,-1.34102 1.5625,-1.34375 0.2004,-0.003 0.48865,-0.28054 0.65625,-0.59375 0.3998,-0.74693 4.469,-2.4375 5.875,-2.4375 z"
     id="path5887"
     style="fill:#f2ca30" />
  <path
     d="m 173.78107,50.83379 c 1.90736,0 4.10468,1.19943 5.03125,2.75 0.91647,1.53365 0.76401,6.36945 -0.3125,9.96875 -0.44355,1.48303 -0.92719,3.24647 -1.09375,3.90625 -0.16656,0.65978 -0.62104,1.93655 -1,2.84375 -0.37896,0.90719 -0.79101,2.06767 -0.90625,2.5625 -0.11525,0.49484 -0.45025,1.36019 -0.75,1.9375 -0.29975,0.5773 -1.27499,2.61643 -2.1875,4.53125 -0.91251,1.91483 -1.87385,3.6666 -2.125,3.875 -0.25116,0.20843 -0.46875,0.5027 -0.46875,0.65625 0,0.39469 -2.51626,4.23951 -3.09376,4.71875 -0.26371,0.21884 -0.5,0.51047 -0.5,0.65625 0,0.27087 -3.32429,3.71181 -4.9375,5.09375 -0.49188,0.42136 -1.87505,1.26545 -3.0625,1.875 -2.06134,1.0581 -2.28516,1.09375 -5.125,1.09375 -2.60991,0 -3.08453,-0.0736 -3.84376,-0.65625 -1.66336,-1.27658 -1.90625,-1.75063 -1.90625,-3.5 0,-1.55006 0.96998,-5.34765 2.375,-9.1875 0.30177,-0.82472 0.85228,-2.43914 1.21875,-3.59375 0.36649,-1.15461 0.79793,-2.25981 0.93751,-2.4375 0.13959,-0.17772 0.52552,-1.23316 0.875,-2.375 0.34948,-1.14186 0.90495,-2.51696 1.21875,-3.03125 0.31381,-0.51433 0.5625,-1.13484 0.5625,-1.375 0,-0.50494 1.63679,-4.34673 2.96875,-6.96875 0.50274,-0.98967 0.93542,-1.8951 0.9375,-2 0.009,-0.42763 2.44341,-3.79954 3.65625,-5.0625 1.70673,-1.77727 5.50312,-4.78125 6.03125,-4.78125 0.22876,0 0.48428,-0.10924 0.59375,-0.21875 0.51192,-0.51184 3.48614,-1.28125 4.90626,-1.28125 z"
     id="path5885"
     style="fill:#f2ca30" />
  <path
     d="m 8.0935167,111.24392 c -1.1046596,2.63734 -4.2379854,8.72709 0.6875004,9.09375 30.4966259,0.21324 61.0739339,0.68953 91.5313029,-0.21875 2.98656,-2.09288 2.99773,-6.71603 3.0625,-10.125 -31.593768,0 -63.187536,0 -94.781303,0 l -0.3713912,0.92848 -0.1286091,0.32152 z"
     id="path5871"
     style="fill:#cf4229" />
  <path
     d="m 106.5542,138.19062 c -2.03924,-0.49198 -4.56975,-2.25407 -5.57677,-3.88327 -0.3454,-0.5588 -0.74585,-1.016 -0.88988,-1.016 -0.144042,0 -0.352582,-0.50608 -0.463432,-1.12462 -0.11085,-0.61854 -0.40783,-1.36079 -0.65995,-1.64945 -0.432511,-0.49519 -2.864812,-0.525 -43.077605,-0.52806 -46.2336654,-0.004 -43.904774,0.0769 -46.7933257,-1.61571 -0.6739904,-0.39493 -1.4949009,-1.01579 -1.824241,-1.37965 -0.3293402,-0.36387 -0.9783406,-0.85783 -1.4422408,-1.09772 -2.2401613,-1.15827 -4.5543726,-4.00069 -5.21086302,-6.40015 -0.84126047,-3.07487 -0.24961014,-9.49769 0.96798062,-10.50808 0.2397601,-0.19895 0.4359302,-0.52027 0.4359302,-0.714 0,-0.19374 0.5061403,-0.82145 1.1247506,-1.39489 3.3115919,-3.06983 5.185253,-3.56541 13.5064671,-3.57246 4.736773,-0.004 6.116484,-0.0921 6.233974,-0.39827 0.084,-0.21886 -0.934171,-1.51506 -2.296832,-2.92401 -1.34624,-1.39199 -2.794451,-3.0707 -3.218231,-3.73048 -0.423791,-0.65978 -1.008051,-1.47176 -1.298351,-1.8044 -0.2903,-0.33265 -0.852301,-1.21501 -1.248881,-1.9608 -0.39659,-0.74576 -0.8703,-1.62072 -1.05271,-1.94431 -1.154011,-2.04735 -2.726402,-6.24771 -2.746232,-7.3361 -0.008,-0.41237 -0.28186,-1.60525 -0.60966,-2.65084 -0.7650204,-2.44022 -0.8312604,-9.28482 -0.12091,-12.49407 0.25556,-1.15462 0.51119,-2.78118 0.56805,-3.61463 0.0941,-1.37927 1.030441,-5.10032 1.656211,-6.58195 0.13933,-0.32989 0.34148,-1.00466 0.44922,-1.49949 0.33727,-1.54904 2.225961,-6.24696 3.195042,-7.94733 0.14101,-0.24742 0.38889,-0.78724 0.55084,-1.1996 0.16195,-0.41236 0.496661,-1.08713 0.743801,-1.49949 0.24714,-0.41237 0.66652,-1.21352 0.93196,-1.78036 0.26543,-0.56681 0.807711,-1.45676 1.205051,-1.97762 0.39735,-0.5209 0.72245,-1.05274 0.72245,-1.18184 0,-0.12914 0.776081,-1.30639 1.724621,-2.61611 4.073713,-5.62488 8.922685,-10.93226 14.009418,-15.33382 2.818502,-2.43887 8.556915,-6.71456 9.416525,-7.01623 0.271611,-0.0953 0.763781,-0.40972 1.093711,-0.69868 0.32993,-0.28895 1.883601,-1.18928 3.452622,-2.00077 1.569001,-0.81147 3.188652,-1.69288 3.599212,-1.95865 0.41055,-0.26577 1.438221,-0.7537 2.283701,-1.08434 C 56.741104,9.74176 58.023324,9.20764 58.745005,8.88546 61.396436,7.70182 66.065899,6.06808 68.30535,5.5405 78.623856,3.10961 79.251216,3.03233 88.700902,3.02732 c 9.517705,-0.005 9.391745,-0.0216 19.215458,2.50949 0.58818,0.15154 1.46549,0.48206 1.94957,0.73446 0.48409,0.25242 1.01769,0.45977 1.18578,0.46076 0.54021,0.003 4.51831,1.76317 6.43838,2.84835 1.02397,0.57872 1.96286,1.0522 2.08641,1.0522 0.12354,0 0.46892,0.26991 0.7675,0.5998 0.29859,0.32989 0.7115,0.5998 0.9176,0.5998 0.20609,0 1.57103,0.99005 3.03318,2.20009 2.70724,2.24048 5.22494,4.84871 7.28306,7.54492 2.01415,2.6386 5.41254,9.88567 5.41254,11.54222 0,1.68031 0.36296,1.79943 4.49901,1.4765 5.17396,-0.40394 11.26701,-1.18374 19.51946,-2.49804 3.87211,-0.61669 6.30503,-0.21665 8.75157,1.43903 0.89657,0.60676 0.52879,0.65546 5.17168,-0.68515 5.56073,-1.6056 14.81183,-1.33068 19.19582,0.5705 0.32992,0.14308 1.36739,0.52356 2.30548,0.84551 0.9381,0.32194 2.69271,1.22901 3.89915,2.01571 2.26944,1.47988 6.54259,5.4112 6.54259,6.01921 0,0.19011 0.21033,0.52021 0.4674,0.73353 0.25707,0.21335 0.93414,1.41072 1.5046,2.66085 0.57045,1.25013 1.15067,2.4754 1.28937,2.72282 0.49166,0.87705 1.27416,0.66158 2.64444,-0.72816 1.47196,-1.49286 6.18311,-5.13601 8.62646,-6.67086 1.31186,-0.82407 2.79217,-1.63697 6.91309,-3.79622 1.6095,-0.84337 3.63,-1.70043 4.0087,-1.70043 0.2036,0 0.7474,-0.19511 1.2086,-0.43356 2.2279,-1.15194 9.70261,-2.78088 14.65191,-3.19303 8.8242,-0.73481 16.77101,1.13788 22.61171,5.32846 1.6468,1.18157 1.832,1.2011 3.059,0.32245 2.13681,-1.53023 3.15781,-1.79528 7.84841,-2.03745 2.4745,-0.12776 5.4438,-0.37602 6.5986,-0.55173 1.1547,-0.17568 3.9216,-0.46199 6.14861,-0.63623 4.6711,-0.36546 6.9642,-0.69364 14.8468,-2.12482 2.82661,-0.51319 5.99961,-0.1881 7.91381,0.81084 0.8883,0.46358 1.9915,1.21915 2.4514,1.67898 0.9491,0.94898 1.4502,1.02311 2.666,0.39446 2.6036,-1.34622 7.93831,-2.78318 11.83321,-3.18739 5.7489,-0.59662 11.379,0.27969 16.07661,2.5023 2.0584,0.97389 2.9827,1.64987 4.799,3.50942 2.3903,2.44739 4.1233,5.36352 4.5245,7.61339 0.1226,0.68758 0.452,2.05986 0.732,3.04953 0.5874,2.07581 0.4579,5.52633 -0.2813,7.49748 -0.2475,0.65978 -0.4558,1.60968 -0.463,2.11087 -0.012,0.85207 -2.8151,9.52681 -3.2907,10.185 -0.1192,0.16494 -0.3892,0.90719 -0.6001,1.64944 -0.2109,0.74225 -0.4866,1.4845 -0.6127,1.64945 -0.4872,0.63719 -1.2632,3.5141 -1.0149,3.76238 0.1429,0.14281 1.3387,0.80292 2.6575,1.4669 1.3188,0.66395 2.8962,1.63199 3.5055,2.15121 2.1894,1.86591 2.0538,3.62923 1.9683,-25.59058 l -0.077,-26.17499 -2.8494,-0.18357 c -1.5672,-0.10095 -3.2543,-0.29034 -3.7492,-0.42088 -2.4297,-0.64092 -4.7434,-2.5498 -6.2914,-5.1906 l -1.057,-1.80335 0,-4.04237 c 0,-3.89296 0.033,-4.10727 0.8939,-5.79759 1.673,-3.2854 3.7824,-4.84394 7.6114,-5.62377 3.3573,-0.68377 48.71003,-0.70665 59.29143,-0.03 7.32171,0.46829 12.57151,1.09229 15.13521,1.79906 0.8248,0.22739 2.0395,0.5083 2.6994,0.62424 1.6288,0.2862 7.76071,2.40507 9.54761,3.29913 0.7971,0.39887 1.6241,0.72519 1.8378,0.72519 0.2137,0 0.551,0.19568 0.7495,0.43485 0.1985,0.23914 0.9236,0.70987 1.6114,1.04599 0.6877,0.33616 1.9253,1.15365 2.7501,1.81667 0.8248,0.66305 1.8371,1.42707 2.2495,1.69788 0.8662,0.56879 3.69341,3.80452 4.53911,5.19509 0.7881,1.29566 1.4136,1.07796 2.5786,-0.89759 0.5338,-0.90501 1.7151,-2.42247 2.6251,-3.37219 0.9101,-0.94969 1.6652,-1.8269 1.678,-1.94934 0.04,-0.38493 4.2202,-3.78551 5.6543,-4.60016 0.754,-0.42831 1.8958,-1.13683 2.53751,-1.57447 0.6416,-0.43764 1.3232,-0.79572 1.5146,-0.79572 0.1915,0 0.5057,-0.1576 0.6984,-0.35025 0.1926,-0.19263 0.7933,-0.51304 1.3347,-0.71202 2.5282,-0.92912 5.6579,-1.93921 7.433,-2.39899 1.0723,-0.27773 2.287,-0.61566 2.6994,-0.75098 0.4124,-0.13531 2.0321,-0.3931 3.59921,-0.57289 1.5672,-0.17979 3.7942,-0.45435 4.949,-0.61012 2.8583,-0.38558 9.848,-0.37484 11.9756,0.0183 0.95591,0.1767 3.17401,0.49888 4.92901,0.71595 1.755,0.21709 4.8106,0.82229 6.7902,1.34492 1.9795,0.52261 3.8989,1.02512 4.2652,1.11671 0.4877,0.12194 1.0202,-0.14347 1.9889,-0.99141 2.18971,-1.91644 4.38481,-2.50755 9.31171,-2.50749 3.5077,6e-5 4.4583,0.10281 5.9987,0.64839 1.0067,0.35658 1.9586,0.76144 2.1153,0.89969 0.1567,0.13826 11.91151,0.25138 26.12172,0.25138 29.16082,0 34.88242,0.22825 45.41862,1.81199 1.23231,0.18522 2.45741,0.45285 2.72251,0.59473 0.2652,0.14188 1.214,0.3426 2.1086,0.44604 0.8946,0.10347 2.0989,0.36687 2.6763,0.58531 0.5774,0.21848 2.8044,0.96427 4.9489,1.65734 2.1446,0.69309 4.0274,1.38211 4.1841,1.53119 0.1567,0.14911 0.5745,0.27108 0.9283,0.27108 0.3539,0 0.88771,0.26991 1.18631,0.5998 0.2985,0.32989 0.8323,0.5998 1.1862,0.5998 0.3538,0 0.7716,0.12482 0.9283,0.27737 0.1567,0.15256 1.3752,0.81924 2.7078,1.48154 1.3325,0.66226 2.5975,1.41465 2.8111,1.67193 0.2135,0.25732 0.4932,0.46785 0.6214,0.46785 0.3747,0 3.0166,1.84885 5.1085,3.57503 2.8338,2.33829 4.60831,4.1115 7.33701,7.33125 2.0039,2.3645 4.7141,6.46007 5.0871,7.68747 0.1253,0.41236 0.4018,0.95218 0.6145,1.19959 0.79,0.9191 2.6786,6.22507 3.8813,10.90419 0.715,2.78204 0.76,3.40376 0.76,10.51701 0,5.43151 -0.1144,7.97657 -0.4063,9.03911 -0.2235,0.81342 -0.5703,2.22121 -0.7708,3.1284 -0.4628,2.09429 -1.4563,5.19294 -2.1696,6.76744 -0.3039,0.67063 -0.5525,1.43864 -0.5525,1.70672 0,0.26808 -0.1381,0.57278 -0.3069,0.67709 -0.1688,0.10433 -0.6914,1.0375 -1.1613,2.07371 -0.4699,1.03621 -1.4115,2.72275 -2.0925,3.7479 -0.681,1.02515 -1.2382,1.93582 -1.2382,2.02372 0,0.26517 -3.0384,3.82833 -3.4844,4.08625 -0.2281,0.13189 -0.4148,0.39886 -0.4148,0.59323 0,0.37751 -1.15011,1.49347 -4.89111,4.74602 -2.1089,1.8335 -5.2503,4.05953 -8.3964,5.94979 -0.7088,0.42583 -1.1046,0.87076 -1.046,1.17588 0.084,0.43914 1.1831,0.50902 10.4382,0.66361 6.74541,0.11271 10.81351,0.30143 11.69361,0.54255 1.6356,0.44805 4.0761,1.96707 4.7069,2.92975 0.2536,0.3869 0.6689,0.70344 0.9231,0.70344 1.1035,0 4.02411,2.82841 4.95491,4.79839 0.5608,1.18697 0.6391,1.89869 0.6501,5.90801 0.01,3.26134 -0.094,4.66514 -0.3623,4.93334 -0.2063,0.20618 -0.375,0.56531 -0.375,0.79809 0,1.25967 -4.30901,5.01786 -6.44861,5.62428 -0.4948,0.14027 -113.59936,0.32821 -251.34324,0.41764 l -250.44341,0.16264 -1.14985,2.32932 c -1.56012,3.16042 -3.83079,5.05612 -6.88132,5.74495 -2.9771,0.67223 -43.15399,0.64947 -45.95378,-0.0261 l 3.6e-4,2.6e-4 z m 42.97343,-10.05754 c 0.37331,-0.37325 0.49711,-3.13229 0.17787,-3.96412 -0.13514,-0.35214 -0.61821,-0.47849 -1.87459,-0.49028 -2.69648,-0.0252 -6.27473,-0.71706 -7.17565,-1.38721 -0.65973,-0.49073 -0.834,-0.88725 -0.91233,-2.0759 -0.11493,-1.74401 0.35798,-4.48731 1.13216,-6.56762 0.30692,-0.82472 0.78077,-2.24174 1.05299,-3.14894 0.27221,-0.90719 0.7442,-2.32422 1.04885,-3.14894 0.30465,-0.82472 0.85269,-2.47969 1.21786,-3.67772 0.36517,-1.19801 0.79171,-2.25716 0.94787,-2.35367 0.15616,-0.0965 1.05144,0.0937 1.98952,0.42256 4.06466,1.42512 4.85243,1.56019 9.09985,1.56019 3.65424,0 4.65192,-0.11639 7.98456,-0.93146 2.09469,-0.51228 4.28283,-1.17653 4.86254,-1.47607 0.57971,-0.29957 1.66139,-0.78295 2.40373,-1.07418 0.74233,-0.29123 1.56278,-0.70662 1.82322,-0.92309 0.26044,-0.21647 0.62484,-0.39359 0.80978,-0.39359 0.18495,0 0.91666,-0.37112 1.62603,-0.82472 0.70936,-0.4536 1.51367,-0.95968 1.78735,-1.12462 0.93286,-0.56222 5.49816,-4.13057 6.48099,-5.06566 7.92043,-7.53586 12.51408,-14.50195 15.44704,-23.42476 2.34547,-7.13554 2.3441,-14.9489 -0.003,-19.31801 -2.19215,-4.07995 -4.37751,-5.86033 -9.27688,-7.55773 -2.34199,-0.81141 -2.78902,-0.86485 -7.22108,-0.86362 -4.5797,0 -4.81766,0.0327 -7.76214,1.02362 -4.78417,1.61012 -9.07087,4.2962 -13.41801,8.40782 -0.96735,0.91493 -1.80389,1.66351 -1.85899,1.66351 -0.17845,0 0.50127,-1.92031 1.06155,-2.99899 0.29986,-0.57731 0.75547,-1.65694 1.01248,-2.39919 0.25702,-0.74226 0.79852,-2.14632 1.20336,-3.12013 0.40483,-0.97383 0.66634,-1.95225 0.58113,-2.17427 -0.22106,-0.57601 -2.30675,-0.51078 -5.41776,0.16945 -1.44169,0.31522 -4.30838,0.72392 -6.37043,0.90824 -2.06206,0.18429 -5.84123,0.60091 -8.39817,0.92582 -2.55695,0.32491 -6.33612,0.76028 -8.39817,0.96751 l -3.74919,0.37673 0,2.24789 0,2.2479 2.76227,0.2287 c 3.39954,0.28146 4.79917,0.72894 5.58284,1.78491 l 0.60409,0.81402 -0.78829,2.63482 c -0.43357,1.44915 -0.9367,3.24212 -1.11806,3.98437 -0.18137,0.74225 -0.57683,2.02432 -0.87879,2.84905 -0.30197,0.82472 -0.78117,2.30922 -1.06491,3.29889 -0.28373,0.98966 -0.69736,2.27173 -0.91919,2.84904 -0.22182,0.5773 -0.63539,1.92685 -0.91904,2.99899 -0.28365,1.07214 -0.76222,2.53409 -1.0635,3.24878 -0.30128,0.71469 -0.54778,1.51464 -0.54778,1.77765 0,0.42793 -0.33007,1.44264 -2.21835,6.81959 -0.28963,0.82472 -0.78659,2.44418 -1.10437,3.59879 -0.31777,1.15461 -0.83868,2.77407 -1.15757,3.59879 -0.31889,0.82472 -1.20968,3.52381 -1.97952,5.99798 -0.76985,2.47417 -1.63938,5.17326 -1.9323,5.99799 -1.19071,3.35254 -2.17472,6.38158 -2.5397,7.81786 -0.21244,0.83597 -0.52227,1.78065 -0.68852,2.09929 -0.16625,0.31862 -0.53399,1.51473 -0.8172,2.65801 -1.02906,4.1542 -3.77239,8.78267 -5.50463,9.28725 -1.18034,0.3438 -4.15856,0.77998 -5.32576,0.77998 -0.87458,0 -1.31848,0.14578 -1.44459,0.47438 -0.31924,0.83183 -0.19544,3.59087 0.17786,3.96412 0.52046,0.52039 40.45061,0.52039 40.97107,0 l -4e-4,0 z m -0.12451,-31.4937 c -1.66336,-1.27658 -1.91504,-1.73444 -1.91504,-3.48381 0,-1.55006 0.99258,-5.35779 2.3976,-9.19764 0.30177,-0.82472 0.84853,-2.44418 1.215,-3.59879 0.36649,-1.15461 0.78054,-2.24471 0.92012,-2.4224 0.13959,-0.17772 0.53972,-1.25736 0.8892,-2.3992 0.34948,-1.14186 0.89216,-2.49687 1.20596,-3.01116 0.31381,-0.51433 0.57056,-1.13158 0.57056,-1.37174 0,-0.50494 1.64551,-4.36803 2.97747,-6.99005 0.50274,-0.98967 0.91579,-1.88523 0.91787,-1.99013 0.009,-0.42763 2.44355,-3.79817 3.65639,-5.06113 1.70673,-1.77727 5.50115,-4.79476 6.02928,-4.79476 0.22876,0 0.50549,-0.0895 0.61496,-0.19901 0.51192,-0.51184 3.48872,-1.30049 4.90884,-1.30049 1.90736,0 4.10765,1.20386 5.03422,2.75443 0.91647,1.53365 0.76491,6.39469 -0.3116,9.99399 -0.44355,1.48303 -0.94273,3.23621 -1.10929,3.89599 -0.16656,0.65978 -0.6129,1.94184 -0.99186,2.84904 -0.37896,0.90719 -0.78332,2.05431 -0.89856,2.54914 -0.11525,0.49484 -0.45479,1.37204 -0.75454,1.94935 -0.29975,0.5773 -1.2916,2.61632 -2.20411,4.53114 -0.91251,1.91483 -1.86461,3.65203 -2.11576,3.86043 -0.25116,0.20843 -0.45665,0.50455 -0.45665,0.6581 0,0.39469 -2.54224,4.24192 -3.11974,4.72116 -0.26371,0.21884 -0.47948,0.51718 -0.47948,0.66296 0,0.27087 -3.34119,3.69409 -4.9544,5.07603 -0.49188,0.42136 -1.86588,1.26482 -3.05333,1.87437 -2.06134,1.0581 -2.29358,1.10825 -5.13342,1.10825 -2.60991,0 -3.08046,-0.0814 -3.83969,-0.66407 z m -49.640102,21.5498 c 0.557882,-0.67214 1.519872,-3.86207 1.527762,-5.06605 l 0.007,-1.12462 -45.686797,0 -45.6867952,0 -0.7801005,1.89935 c -0.8832305,2.15046 -1.2796307,3.90733 -0.9880405,4.37907 0.13822,0.2236 13.8497772,0.31936 45.7330352,0.31936 37.986372,0 45.591656,-0.0675 45.873556,-0.40711 l 3.8e-4,0 z m 553.972522,-0.36993 c 0.752,-1.65022 1.5695,-4.42567 1.4828,-5.03378 l -0.091,-0.63701 -250.83094,-0.0752 -250.8309,-0.0751 -0.61136,1.4247 c -0.79508,1.85287 -1.30419,4.08373 -1.07075,4.69198 0.16943,0.44148 21.00395,0.48146 250.89141,0.48146 l 250.70654,0 0.3541,-0.77704 10e-5,-1e-5 z m -540.61767,-9.79441 c 0.11915,-0.43182 1.79184,-5.63297 2.24239,-6.97265 0.83531,-2.48371 1.64579,-5.04632 2.32379,-7.34753 0.41308,-1.40203 0.89279,-2.83993 1.06603,-3.19531 0.72848,-1.49452 -0.71461,-1.75765 -2.02416,-0.36908 -1.08234,1.14762 -8.10351,7.16318 -8.36066,7.16318 -0.10219,0 -1.02551,0.64493 -2.0518,1.43316 -1.0263,0.78825 -2.58098,1.88606 -3.45486,2.43959 -2.1301,1.34921 -1.98263,1.78814 0.87587,2.60699 2.81274,0.80571 3.42624,1.11535 4.78976,2.4174 1.85831,1.7745 4.33587,2.75841 4.59364,1.82425 z M 68.30535,103.4685 c 5.366653,-0.83081 8.653415,-1.59747 11.153177,-2.60159 0.77292,-0.31046 1.68581,-0.56447 2.028631,-0.56447 0.34283,0 0.85769,-0.1265 1.14414,-0.2811 0.28645,-0.15459 1.195671,-0.57118 2.020491,-0.92579 5.683204,-2.44324 8.713765,-4.06129 13.347088,-7.12617 4.620963,-3.05666 10.658593,-8.408 14.452693,-12.80983 1.13738,-1.31956 2.34297,-2.68374 2.67909,-3.03147 0.33612,-0.34777 0.83681,-0.97294 1.11264,-1.38926 0.27582,-0.41635 1.04612,-1.54883 1.71179,-2.51666 0.66566,-0.96784 1.64865,-2.50194 2.18441,-3.40914 0.53576,-0.90719 1.10002,-1.85187 1.2539,-2.09929 0.59223,-0.95218 3.89952,-8.08936 3.89952,-8.4152 0,-0.18885 0.38707,-1.51038 0.86016,-2.93673 1.03433,-3.11854 1.94428,-9.13556 1.91154,-12.64001 -0.0348,-3.72624 -0.99544,-8.74377 -2.15313,-11.24622 -0.30523,-0.65977 -0.73149,-1.60446 -0.94725,-2.09929 -0.5563,-1.27583 -2.13095,-3.74874 -2.38707,-3.74874 -0.11838,0 -0.43941,-0.47234 -0.71339,-1.04965 -0.27398,-0.5773 -0.60603,-1.04964 -0.73787,-1.04964 -0.13185,0 -0.96908,-0.70852 -1.86052,-1.57448 -2.15776,-2.09608 -7.03606,-5.6231 -7.77743,-5.6231 -0.14056,0 -1.1748,-0.47169 -2.29832,-1.04818 -1.12352,-0.5765 -2.27438,-1.04884 -2.55747,-1.04965 -0.28309,0 -0.95794,-0.19095 -1.49967,-0.4225 -1.32251,-0.56531 -2.78563,-0.95431 -6.533753,-1.73716 -2.758741,-0.5762 -4.079262,-0.65741 -10.647686,-0.65498 -6.919224,0.003 -7.811094,0.0649 -11.547476,0.80664 -2.227011,0.44208 -4.521513,0.93328 -5.098893,1.09151 -0.57737,0.15826 -1.657141,0.44562 -2.399471,0.63863 -1.720231,0.44724 -6.206374,2.17322 -8.584945,3.30288 -1.010031,0.47972 -1.938801,0.8722 -2.063951,0.8722 -0.414131,0 -5.648884,3.0644 -8.664585,5.07223 -1.631881,1.08647 -3.194542,2.11123 -3.472582,2.27722 -0.27804,0.16596 -0.741761,0.53799 -1.030471,0.82667 -0.28872,0.28868 -0.75173,0.64622 -1.0289,0.79455 -1.383521,0.74037 -6.899174,6.0921 -10.101106,9.80095 -2.722192,3.15317 -3.027232,3.53785 -3.466742,4.37187 -0.20245,0.38417 -0.44949,0.76597 -0.54898,0.84845 -0.16626,0.13783 -0.819141,1.11439 -2.305702,3.44884 -1.23891,1.94556 -2.490791,4.37298 -4.485302,8.69707 -0.724361,1.57043 -2.130891,6.1749 -3.023152,9.89668 -0.78514,3.27499 -0.86276,4.08447 -0.86276,8.99697 0,5.32612 0.0131,5.436 0.98454,8.23023 1.372821,3.94898 2.539732,6.19963 4.458283,8.59889 0.90799,1.1355 1.741941,2.19949 1.853221,2.36443 0.32808,0.48632 4.771562,4.34854 5.002963,4.34854 0.11656,0 0.70374,0.37307 1.30485,0.82904 2.049232,1.55444 7.821035,4.13288 10.690846,4.77592 0.989781,0.22181 2.744402,0.61567 3.899143,0.87532 1.15475,0.25962 3.314281,0.58549 4.798962,0.7242 3.672012,0.34299 12.564837,0.0994 16.046499,-0.43963 z M 56.157993,98.17384 c -2.625811,-0.44541 -4.173362,-0.99227 -5.842483,-2.06462 -3.548342,-2.27969 -5.373343,-5.41177 -6.183353,-10.61193 -0.473971,-3.04284 -0.473451,-3.49626 0.009,-7.48747 0.28219,-2.33663 0.75773,-5.12566 1.05677,-6.1978 0.29903,-1.07214 0.772041,-2.96151 1.051131,-4.19859 1.248571,-5.53437 5.456923,-17.44034 7.632274,-21.59274 0.12961,-0.24742 0.886061,-1.73192 1.680981,-3.2989 0.794921,-1.56697 1.916561,-3.59129 2.492522,-4.49848 2.529101,-3.98356 3.818182,-5.86459 4.172082,-6.08787 0.20907,-0.13189 0.38012,-0.38546 0.38012,-0.56345 0,-0.68173 5.063403,-6.08684 7.811324,-8.33852 2.166822,-1.77549 5.416604,-3.90381 5.960834,-3.90381 0.34219,0 0.62011,-0.1178 2.421501,-1.02638 1.898491,-0.95755 7.616084,-1.72802 10.200586,-1.37462 5.675323,0.77611 7.808794,1.68193 10.419236,4.42364 1.771802,1.86093 2.252932,2.6927 3.166862,5.47484 0.54232,1.65091 0.63598,2.61509 0.61178,6.29788 -0.0185,2.82145 -0.18923,4.98043 -0.48604,6.14793 -0.25161,0.98967 -0.54698,2.47417 -0.65639,3.29889 -0.22268,1.67863 -0.52793,2.99267 -1.35849,5.84804 -0.31185,1.07214 -0.837862,2.89403 -1.168902,4.04864 -0.870801,3.03717 -2.236831,7.00492 -2.760542,8.01822 -0.14803,0.28644 -0.26915,0.70986 -0.26915,0.94103 0,0.48718 -2.596521,6.31968 -4.422612,9.9344 -0.24998,0.49483 -0.722951,1.43951 -1.051041,2.09929 -0.32809,0.65978 -0.74916,1.3859 -0.9357,1.61358 -0.463441,0.56564 -2.210712,3.59708 -2.656732,4.60933 -0.19987,0.4536 -0.44999,0.82472 -0.55581,0.82472 -0.10583,0 -0.759781,0.87721 -1.453231,1.94935 -0.69345,1.07214 -1.378001,1.94934 -1.521231,1.94934 -0.14322,0 -0.34373,0.2625 -0.44557,0.58334 -0.20838,0.65645 -5.427333,5.98224 -7.216284,7.36399 -6.431924,4.96789 -13.324928,6.96504 -20.082992,5.81873 l -4.5e-4,0 z m 7.686525,-8.5581 c 1.21623,-0.26958 2.385561,-0.62808 2.598521,-0.79665 0.21297,-0.1686 1.055231,-0.61602 1.871691,-0.99426 2.146481,-0.99434 7.995215,-6.97118 10.563316,-10.79469 1.113501,-1.65781 2.024551,-3.11466 2.024551,-3.23741 0,-0.12278 0.404921,-0.81165 0.899811,-1.53087 0.49489,-0.71921 0.8998,-1.37653 0.8998,-1.46068 0,-0.0842 0.866581,-1.94923 1.925731,-4.14455 6.020904,-12.47971 10.345896,-29.05711 9.336626,-35.78664 -0.14716,-0.98121 -0.515421,-1.73012 -1.251191,-2.54441 -0.946771,-1.04784 -1.224621,-1.17344 -3.021612,-1.36586 -3.464122,-0.37094 -7.060954,0.44637 -9.707165,2.20579 -3.662842,2.43536 -4.524193,3.19108 -7.076684,6.20875 -1.317461,1.55756 -5.009973,6.73088 -5.530733,7.74874 -0.0981,0.19169 -0.36587,0.68593 -0.595081,1.09829 -0.99128,1.78338 -2.997361,5.60961 -3.301951,6.29788 -0.182491,0.41236 -0.512991,1.15461 -0.734441,1.64945 -0.99063,2.21355 -1.594131,3.68591 -1.966801,4.79839 -0.22102,0.65977 -0.57506,1.46578 -0.78676,1.79114 -0.211691,0.32536 -0.384901,0.83795 -0.384901,1.13911 0,0.30116 -0.26994,1.10621 -0.59987,1.78899 -0.32993,0.68281 -0.59987,1.47805 -0.59987,1.76722 0,0.28916 -0.13497,0.60918 -0.29993,0.71112 -0.164971,0.10193 -0.299941,0.57427 -0.299941,1.04964 0,0.47537 -0.11941,0.93809 -0.26535,1.02827 -0.14594,0.0902 -0.3335,0.53676 -0.41678,0.99239 -0.0833,0.45561 -0.42296,1.77307 -0.75482,2.92768 -0.331861,1.15461 -0.695551,2.70659 -0.808191,3.44884 -0.11265,0.74225 -0.39591,2.01508 -0.62947,2.8285 -0.28084,0.97806 -0.42467,2.98808 -0.42467,5.93495 0,3.84404 0.0813,4.61532 0.59185,5.616 1.02869,2.01616 4.265392,2.61761 8.744315,1.62488 z m 404.830412,12.58947 c 0.9032,-1.637 1.1655,-1.88715 2.317,-2.20948 1.44461,-0.40444 3.87861,-0.10061 7.17411,0.8955 7.8111,2.36105 13.18031,3.13518 21.74521,3.13518 7.84791,0 10.67781,-0.33937 17.69611,-2.12209 2.8832,-0.73235 7.99341,-3.0103 10.94761,-4.88002 3.1416,-1.98833 7.102,-6.09617 8.89,-9.22097 1.4638,-2.55817 1.7757,-3.38823 2.9658,-7.89404 0.3503,-1.32621 0.361,-6.11059 0.017,-7.49748 -1.1659,-4.69717 -2.2192,-7.25345 -4.0554,-9.842 -1.0657,-1.50222 -4.7629,-5.39452 -5.7494,-6.05265 -0.3708,-0.24742 -1.4602,-0.99357 -2.4207,-1.65809 -2.0512,-1.41909 -5.81721,-3.28314 -9.39481,-4.65014 -2.7717,-1.05907 -6.1011,-2.37892 -8.6981,-3.44803 -0.9073,-0.37353 -2.9319,-1.17714 -4.49901,-1.78581 -3.6634,-1.42285 -4.1266,-1.61811 -5.4397,-2.29273 -0.5998,-0.30821 -1.2639,-0.56036 -1.4758,-0.56036 -0.6109,0 -6.5196,-2.71709 -10.21511,-4.69736 -1.7104,-0.91658 -3.8945,-3.07153 -4.8135,-4.74947 -0.9305,-1.69872 -0.9853,-1.96719 -0.9792,-4.79839 0.01,-2.6503 0.099,-3.17704 0.8004,-4.53024 0.7689,-1.48321 2.8759,-4.01688 3.3404,-4.01688 0.1256,0 0.8169,-0.40487 1.5362,-0.8997 0.7193,-0.49483 1.52861,-0.8997 1.79841,-0.8997 0.2698,0 0.7833,-0.15664 1.141,-0.34806 1.3049,-0.69829 5.5022,-1.43589 8.1582,-1.43367 3.8644,0.003 9.64421,1.28354 12.64081,2.8001 0.8488,0.42958 1.6269,0.78103 1.7292,0.78103 0.6927,0 6.8989,4.72668 7.8722,5.99546 0.1909,0.2488 0.7795,0.92471 1.3081,1.50202 2.42241,2.64577 4.70861,6.27584 6.13841,9.74672 1.276,3.09784 1.3424,3.14894 4.0899,3.14894 2.0089,0 2.3866,-0.0826 2.6529,-0.58009 0.3861,-0.72135 0.4222,-27.56944 0.038,-28.17622 -0.3219,-0.50824 -2.8118,-0.77911 -4.6409,-0.50485 -1.2544,0.18809 -1.3823,0.29312 -1.8514,1.52136 -0.8413,2.20276 -1.2468,2.40438 -4.74101,2.35765 -2.2016,-0.0294 -3.545,-0.21202 -4.8669,-0.66154 -1.7809,-0.60562 -4.533,-1.27245 -10.3214,-2.50089 -2.3631,-0.50152 -4.02671,-0.60814 -9.74791,-0.62466 -7.8834,-0.0228 -10.50531,0.33663 -17.39621,2.38492 -2.5025,0.74387 -6.7455,2.7355 -6.7475,3.16726 0,0.12371 -0.1965,0.22492 -0.4354,0.22492 -0.4997,0 -3.80431,2.61276 -5.06801,4.00687 -2.9753,3.28254 -5.3113,7.56645 -6.046,11.08775 -0.5303,2.54135 -0.599,9.14309 -0.1169,11.21722 1.7244,7.41771 9.28601,14.52805 20.96321,19.71216 1.4022,0.62251 3.5284,1.58806 4.72491,2.14566 1.1964,0.55761 2.3828,1.01381 2.6363,1.01381 0.2536,0 0.9618,0.25489 1.5738,0.56639 0.6121,0.31151 1.7202,0.74 2.4625,0.95221 0.7424,0.21218 1.4847,0.47648 1.6497,0.58729 0.1649,0.11085 1.987,0.84065 4.0491,1.62186 3.899,1.47712 4.6501,1.78347 6.89851,2.81389 0.7423,0.34018 1.8372,0.82689 2.4331,1.08156 0.5959,0.25464 1.2536,0.66794 1.4614,0.91838 0.2079,0.25048 0.4897,0.4554 0.6262,0.4554 0.5195,0 2.9952,1.87452 3.9523,2.99245 2.2201,2.59347 2.989,5.66762 2.3266,9.30222 -0.934,5.12464 -5.1667,9.1636 -11.3995,10.87758 -1.91471,0.5265 -3.09771,0.61707 -7.94821,0.60847 -4.4147,-0.008 -6.0367,-0.11963 -7.1985,-0.49601 -0.8248,-0.26724 -1.7696,-0.48766 -2.0995,-0.48982 -1.049,-0.007 -6.05571,-2.33763 -8.64121,-4.02264 -5.7478,-3.74592 -11.00311,-11.09396 -13.26731,-18.55036 -1.2386,-4.07863 -1.1221,-3.95687 -3.8828,-4.05946 -1.9903,-0.074 -2.4541,-0.003 -2.7713,0.43218 -0.4986,0.68176 -0.5597,31.60161 -0.064,32.52719 0.2823,0.52725 0.5848,0.58243 2.7685,0.50509 l 2.4517,-0.0868 1.0185,-1.84597 -7e-4,-2e-5 z m -267.30272,0.63501 c 0.10511,-0.27387 -0.41646,-1.33971 -1.28414,-2.62412 -0.80362,-1.18958 -1.86605,-2.90438 -2.36094,-3.81058 -0.49489,-0.90624 -1.11599,-1.68828 -1.38022,-1.73786 -0.26888,-0.0505 -1.48704,0.8731 -2.76663,2.09753 -1.25741,1.20325 -2.76313,2.59257 -3.34604,3.0874 -0.5829,0.49483 -1.48159,1.26186 -1.99708,1.70448 -0.59937,0.51462 -0.87226,0.97413 -0.75696,1.27457 0.1563,0.40726 1.08116,0.46979 6.94765,0.46979 5.81283,0 6.79232,-0.065 6.94436,-0.46121 z m 35.11299,-0.16843 c 3.2385,-0.69522 4.87591,-1.18397 6.23241,-1.86027 1.3172,-0.65669 3.2801,-1.6559 4.0949,-2.08448 2.3005,-1.21009 7.2515,-5.50963 9.6064,-8.34236 4.75251,-5.71668 4.78681,-5.87955 1.5497,-7.36006 -2.5437,-1.16337 -3.3019,-1.01216 -5.0561,1.00829 -6.6584,7.66941 -12.1767,10.40899 -18.94031,9.40313 -3.7683,-0.56039 -5.8931,-2.32287 -7.11174,-5.89908 -0.83179,-2.44088 -0.54984,-7.95995 0.47634,-9.32423 0.14356,-0.19085 1.0985,-0.4386 2.122,-0.55058 1.0236,-0.11198 2.8958,-0.46191 4.1605,-0.77761 1.2647,-0.31573 2.6215,-0.57404 3.0151,-0.57404 0.8635,0 6.89031,-1.71914 10.47161,-2.98705 2.7843,-0.98577 9.9237,-4.5113 10.908,-5.38652 0.32991,-0.29339 1.20721,-0.95104 1.94951,-1.4615 4.8368,-3.32582 8.4939,-8.60705 8.8797,-12.82303 0.3836,-4.19265 -0.9796,-7.26419 -4.3877,-9.88639 -1.4219,-1.09397 -2.5698,-1.648 -5.0353,-2.4302 -3.13511,-0.99468 -3.29191,-1.01321 -8.57381,-1.01321 -4.9739,0 -5.6766,0.0703 -9.3041,0.9302 -8.83441,2.09425 -16.8929,6.61583 -23.96695,13.44763 -2.46002,2.3758 -7.40094,8.49926 -7.40094,9.17226 0,0.21554 -0.10847,0.43684 -0.24104,0.49184 -0.42327,0.17553 -2.78126,4.80945 -3.78968,7.44749 -1.39436,3.64758 -1.76968,5.63123 -1.90091,10.04662 -0.12833,4.31774 0.3971,7.36747 1.65342,9.59677 0.37182,0.65978 0.82487,1.57073 1.00679,2.02432 0.18191,0.4536 0.45061,0.82473 0.5971,0.82473 0.14648,0 0.62361,0.53981 1.06028,1.19959 0.43667,0.65978 0.9253,1.1996 1.08585,1.1996 0.16054,0 0.55394,0.3331 0.87422,0.74024 0.32028,0.40711 0.89582,0.91319 1.27898,1.12462 3.77815,2.08466 6.1591,3.09574 9.02266,3.83142 2.89864,0.74468 3.87193,0.85091 8.01481,0.87457 3.7352,0.0213 5.3252,-0.10397 7.6483,-0.60271 z m -7.0706,-32.10316 c 0.3385,-0.88311 0.6843,-1.94304 0.7684,-2.3554 0.084,-0.41237 0.5431,-1.59358 1.0198,-2.62493 0.4768,-1.03133 0.8668,-2.05023 0.8668,-2.26424 0,-0.21398 0.1243,-0.51727 0.2761,-0.67396 0.1519,-0.1567 0.793,-1.27811 1.4247,-2.49202 0.6318,-1.2139 1.3383,-2.56345 1.5701,-2.99899 0.6126,-1.15092 2.544,-3.96098 3.3677,-4.89972 0.3904,-0.44493 1.2497,-1.42113 1.90961,-2.16932 0.6598,-0.74819 1.3637,-1.36256 1.5641,-1.36529 0.2004,-0.003 0.5015,-0.26122 0.6691,-0.57443 0.3998,-0.74693 4.4678,-2.42954 5.8738,-2.42954 1.4918,0 3.0743,0.80142 3.6036,1.82494 1.346,2.60244 -0.4472,8.93376 -3.7724,13.31997 -1.4897,1.96496 -4.628,4.95724 -5.4658,5.21143 -0.2051,0.0622 -0.6428,0.35176 -0.9728,0.64338 -0.5522,0.48814 -4.29581,2.47147 -5.69871,3.01917 -0.3299,0.12881 -1.2747,0.52153 -2.0996,0.87271 -0.8248,0.35118 -2.107,0.76162 -2.8493,0.91208 -0.7424,0.15046 -1.6469,0.35823 -2.0101,0.4617 l -0.6604,0.18815 0.6153,-1.60569 z m 32.19862,31.68315 c 0,-1.1445 -1.117,-1.44503 -1.6525,-0.4446 -0.5033,0.94034 -0.1524,1.55189 0.826,1.43937 0.6972,-0.0802 0.8265,-0.23575 0.8265,-0.99477 z m 45.61962,0.63081 c 0.088,-0.23035 -0.2389,-1.61364 -0.7274,-3.07396 -1.1337,-3.38902 -1.5854,-3.47968 -2.7696,-0.55584 -0.8331,2.05701 -1.0799,3.45049 -0.6817,3.8487 0.11,0.10997 1.059,0.19994 2.109,0.19994 1.3574,0 1.9554,-0.12104 2.0697,-0.41884 z m 24.19002,-0.3531 c 1.6523,-0.28112 3.4915,-0.82697 4.547,-1.34955 0.975,-0.48262 1.8887,-0.8775 2.0306,-0.8775 0.1419,0 0.8289,-0.37113 1.5267,-0.82472 0.6978,-0.4536 1.4243,-0.8922 1.6144,-0.97468 0.7669,-0.3327 4.8147,-4.19514 6.75731,-6.44783 1.1378,-1.31956 2.2506,-2.60162 2.4728,-2.84904 2.5296,-2.8168 3.1936,-4.63086 1.8211,-4.9753 -0.4128,-0.10361 -1.2512,-0.44355 -1.863,-0.75547 -0.6119,-0.3119 -1.2771,-0.56711 -1.4783,-0.56711 -0.2012,0 -1.2568,1.04589 -2.34581,2.32421 -5.2287,6.13786 -7.8533,8.12688 -9.6462,7.31011 -0.7009,-0.31928 -0.7576,-0.47708 -0.6362,-1.76854 0.073,-0.77986 0.3091,-1.89029 0.524,-2.4676 0.5232,-1.4059 2.3338,-5.78685 3.1607,-7.64743 0.3665,-0.82472 0.7655,-1.83688 0.8866,-2.24924 0.1211,-0.41236 0.4655,-1.22209 0.7653,-1.7994 0.4949,-0.95317 2.0134,-4.58552 3.197,-7.64743 0.255,-0.65977 0.6368,-1.60446 0.8484,-2.09929 0.6483,-1.51596 1.86651,-4.96621 2.70011,-7.64743 0.436,-1.40203 0.9317,-2.88653 1.1017,-3.29889 0.1699,-0.41236 0.3783,-2.25053 0.4631,-4.08481 0.1248,-2.70149 0.05,-3.6645 -0.3915,-5.06916 -0.7274,-2.3125 -2.43821,-4.2503 -4.75641,-5.38775 -1.7831,-0.87487 -1.9517,-0.89865 -7.0505,-0.99459 -5.1603,-0.0971 -5.2606,-0.0867 -8.2482,0.85306 -1.66351,0.52324 -3.63181,1.29008 -4.37421,1.70409 -2.582,1.43994 -5.9527,3.72976 -6.1157,4.1545 -0.09,0.23513 -0.3477,0.42748 -0.572,0.42748 -0.6018,0 -7.26011,6.77604 -10.95031,11.14399 -1.7641,2.08804 -3.2497,3.68198 -3.3013,3.5421 -0.052,-0.1399 0.1268,-0.59104 0.3964,-1.00253 0.2697,-0.41149 0.7387,-1.53311 1.0423,-2.49246 0.3037,-0.95935 1.1767,-3.22878 1.94,-5.04317 0.7634,-1.81439 1.5985,-3.90618 1.8558,-4.64843 0.2573,-0.74225 0.6474,-1.75441 0.8669,-2.24925 1.0959,-2.47039 1.94071,-4.92857 1.94071,-5.64665 0,-0.68794 -0.1255,-0.80118 -0.88821,-0.80118 -0.4885,0 -2.0069,0.25464 -3.3742,0.56585 -1.3674,0.31124 -4.0382,0.72396 -5.9353,0.91718 -1.8971,0.1932 -5.3389,0.60478 -7.6484,0.91457 -5.04111,0.67628 -11.01231,1.2071 -13.53991,1.20368 -1.405,-0.003 -1.8857,0.11015 -2.0246,0.47189 -0.254,0.66188 -0.2194,3.5039 0.047,3.907 0.1212,0.183 1.4351,0.40168 2.9198,0.48592 3.0511,0.17314 4.6705,0.72693 5.4055,1.84846 0.4789,0.73089 0.4649,0.89466 -0.2915,3.39891 -0.4371,1.44707 -0.9124,3.10339 -1.0561,3.68069 -0.1438,0.57731 -0.4907,1.65695 -0.7709,2.3992 -0.2802,0.74225 -0.6917,1.95684 -0.9146,2.69909 -0.2228,0.74225 -0.9564,2.90152 -1.6301,4.79839 -1.974,5.558 -2.9878,8.43679 -3.5908,10.19657 -0.3108,0.90719 -1.26,3.60629 -2.1094,5.99798 -0.84941,2.3917 -1.65931,4.75341 -1.79991,5.24824 -0.1406,0.49483 -1.0958,3.34163 -2.1227,6.32622 -1.0536,3.06209 -1.7834,5.64459 -1.6751,5.92697 0.175,0.45591 1.1014,0.49339 10.41791,0.42151 l 10.2259,-0.0789 1.736,-5.10417 c 0.95481,-2.8073 1.95801,-5.53344 2.22931,-6.05808 0.2713,-0.52465 0.4933,-1.16931 0.4933,-1.43259 0,-0.26328 0.4553,-1.45082 1.0117,-2.63899 0.5565,-1.18817 1.4581,-3.17249 2.0035,-4.40957 1.859,-4.21565 4.288,-8.97299 6.0797,-11.9072 0.5241,-0.8584 1.3927,-2.30916 1.9303,-3.22392 0.5376,-0.91478 1.0895,-1.66324 1.2266,-1.66324 0.137,0 0.4006,-0.33228 0.5857,-0.73841 0.9215,-2.02234 6.97211,-8.58425 9.42731,-10.22416 0.7041,-0.47021 1.5189,-1.05334 1.8108,-1.29584 0.9083,-0.75454 4.5011,-2.13675 5.554,-2.13675 1.8415,0 3.44611,1.3649 3.1732,2.69909 -0.1915,0.93623 -0.8486,2.67535 -1.7872,4.73008 -0.3972,0.86958 -0.7222,1.73011 -0.7222,1.91221 0,0.18213 -0.4049,1.12786 -0.8998,2.10164 -0.4949,0.97377 -0.8998,1.91332 -0.8998,2.08789 0,0.17458 -0.4049,1.1921 -0.8998,2.26118 -0.4949,1.06911 -0.8998,2.05251 -0.8998,2.18534 0,0.13285 -0.4724,1.27802 -1.0498,2.54485 -0.5774,1.26681 -1.0497,2.45144 -1.0497,2.63252 0,0.18105 -0.405,1.1861 -0.8998,2.23341 -0.4949,1.04734 -0.8999,2.10775 -0.8999,2.35655 0,0.24876 -0.2586,1.02439 -0.5746,1.72361 -0.3161,0.69921 -0.7378,1.81112 -0.9371,2.4709 -0.1994,0.65977 -0.6808,2.14428 -1.0699,3.29889 -1.1243,3.33665 -1.6814,7.49106 -1.2891,9.61285 0.3945,2.13408 0.8475,3.06284 2.1093,4.32442 1.4855,1.48537 2.2617,1.8864 4.7234,2.44031 2.9274,0.65867 5.9184,0.68875 9.41021,0.0947 l 5e-4,-5e-5 z m 90.65535,-1.44431 c 1.3197,-0.27357 3.4793,-0.62538 4.799,-0.78178 1.3197,-0.15637 3.4117,-0.56477 4.649,-0.90756 1.2372,-0.34275 2.7893,-0.72671 3.4492,-0.85324 0.6599,-0.12653 1.67211,-0.44799 2.24951,-0.71439 0.5774,-0.26637 1.6705,-0.68734 2.4291,-0.93544 0.7587,-0.24811 2.0806,-0.86452 2.9376,-1.36976 0.857,-0.50527 1.6382,-0.91866 1.7361,-0.91866 0.5312,0 4.4631,-2.90629 6.152,-4.54737 1.9625,-1.90682 2.8451,-3.15605 4.52121,-6.39895 1.3762,-2.66265 1.7932,-7.37569 0.9639,-10.89311 -1.4766,-6.26259 -5.97551,-11.13907 -13.94091,-15.11091 -1.2373,-0.61692 -2.5232,-1.1251 -2.8577,-1.12927 -0.3344,-0.004 -0.8996,-0.21175 -1.256,-0.46133 -0.3563,-0.24955 -2.51211,-0.92798 -4.79071,-1.50759 -2.2785,-0.57965 -4.2716,-1.09317 -4.429,-1.14118 -0.3715,-0.11327 2.6288,-1.09607 3.3461,-1.09607 0.3013,0 1.2882,-0.28002 2.1932,-0.62226 0.905,-0.34225 2.02491,-0.74009 2.48871,-0.88408 1.5222,-0.47255 5.5594,-2.63911 7.1727,-3.84917 3.8368,-2.87786 5.8946,-6.04381 6.863,-10.55897 0.7896,-3.68138 -0.5734,-9.08386 -3.1326,-12.41586 -1.8942,-2.46631 -4.9826,-4.80058 -8.5971,-6.49791 -2.6807,-1.25883 -8.81971,-3.27355 -9.94861,-3.26501 -0.4403,0.003 -1.5876,-0.18252 -2.5494,-0.41299 -4.8234,-1.15572 -7.1593,-1.23039 -38.49082,-1.23039 l -30.44342,0 -0.091,1.91887 c -0.05,1.05541 0.038,2.0469 0.194,2.20333 0.1565,0.15646 2.0868,0.45768 4.2896,0.66943 5.84881,0.5622 8.01801,1.78578 9.06741,5.11446 0.4675,1.48288 0.5126,4.40989 0.5323,34.58995 0.02,30.78768 -0.014,33.07588 -0.5099,34.56989 -0.6543,1.96968 -2.0035,3.33218 -3.9306,3.96928 -0.7997,0.26443 -3.27621,0.7867 -5.50321,1.16061 l -4.0491,0.67988 -0.091,1.7637 c -0.05,0.97003 -0.016,1.95792 0.074,2.19529 0.1431,0.3729 4.3794,0.41357 31.13442,0.29879 27.33731,-0.11726 31.25012,-0.19115 33.36822,-0.63023 l 8e-4,0 z M 404.982,96.11669 c -3.0552,-0.37956 -4.70091,-1.39666 -5.60121,-3.46168 -0.3043,-0.69805 -0.4131,-4.78156 -0.4855,-18.21888 l -0.093,-17.31917 3.18891,0 c 3.0352,0 9.2887,0.64796 11.5392,1.19563 3.0209,0.73515 6.68441,2.8055 8.69281,4.91262 2.9044,3.04704 4.1592,6.00569 4.8184,11.36087 0.5851,4.75335 -0.3615,10.47272 -2.3326,14.09377 -1.6641,3.05711 -6.0285,6.09224 -9.97881,6.93963 -2.4893,0.53397 -7.4252,0.78574 -9.7479,0.49721 l -3e-4,0 z m 9.4479,-9.02184 c 1.3363,-0.67387 2.1385,-1.59064 2.8689,-3.27856 0.4844,-1.11943 0.5789,-2.03703 0.5714,-5.54813 -0.01,-3.90493 -0.065,-4.3253 -0.7924,-5.85635 -0.431,-0.90719 -1.1018,-1.94058 -1.4908,-2.29644 -1.2133,-1.11005 -3.176,-1.9513 -4.6725,-2.00279 l -1.4335,-0.0493 -0.079,9.59416 c -0.044,5.27682 -0.019,9.75206 0.055,9.94502 0.194,0.50551 3.6668,0.15103 4.9728,-0.50761 l 10e-5,0 z M 398.89079,36.39386 c 0.1062,-17.70734 -0.038,-16.76205 2.76861,-18.08983 1.4872,-0.70347 1.977,-0.77377 5.3913,-0.77377 3.5099,0 3.9417,0.0666 6.6021,1.01732 5.97721,2.13606 8.51971,5.91128 9.00971,13.37784 0.186,2.83447 -0.1293,7.24602 -0.7133,9.98062 -0.5226,2.44727 -1.9952,4.44291 -5.06261,6.86088 -0.2159,0.17022 -1.5639,0.71793 -2.9955,1.21714 -2.6769,0.93347 -4.9726,1.25658 -11.5511,1.62579 l -3.54171,0.1988 0.093,-15.41479 -5e-4,0 z m 13.43951,5.17029 c 0.6915,-0.50803 0.7705,-0.81908 1.0152,-3.99471 0.4619,-5.99649 -0.2419,-8.94159 -2.2998,-9.62284 -1.7177,-0.56867 -1.7147,-0.58084 -1.7147,7.06835 0,3.85389 0.1003,7.10735 0.2229,7.22991 0.3344,0.33436 1.926,-0.0559 2.7764,-0.68071 z m 193.30791,59.38196 c 2.3095,-0.37679 5.6838,-1.02142 7.4984,-1.43256 1.81461,-0.4111 3.83911,-0.85939 4.49901,-0.99617 1.3408,-0.27792 4.243,-1.30792 4.5499,-1.61472 0.1095,-0.10946 0.4598,-0.19901 0.7784,-0.19901 0.7472,0 6.1231,-2.50116 8.80011,-4.09422 6.3117,-3.75624 10.4457,-7.64878 14.9225,-14.05109 1.4877,-2.12755 4.99161,-10.38134 4.99161,-11.75821 0,-0.41227 0.23,-1.57879 0.5111,-2.59227 0.749,-2.70095 0.7543,-13.99314 0.01,-16.43393 -0.2853,-0.9326 -0.5187,-1.9872 -0.5187,-2.3436 0,-0.5794 -0.4677,-1.91929 -1.6257,-4.65788 -0.94311,-2.23038 -2.94651,-6.14793 -3.14401,-6.14793 -0.12,0 -0.4329,-0.43861 -0.6954,-0.97468 -1.0678,-2.18062 -6.538,-7.72477 -9.857,-9.9903 -3.7613,-2.56741 -7.98261,-4.83761 -11.07221,-5.9545 -3.2147,-1.16217 -3.679,-1.3167 -5.3988,-1.79705 -0.9073,-0.25339 -2.5194,-0.73431 -3.5825,-1.06866 -1.063,-0.33439 -2.3461,-0.60796 -2.85131,-0.60796 -0.5052,0 -1.3767,-0.13139 -1.9367,-0.29195 -0.56,-0.1606 -2.7186,-0.53136 -4.797,-0.82397 -3.4158,-0.48089 -6.6885,-0.53206 -34.07222,-0.53275 l -30.29342,0 -0.089,2.02651 c -0.084,1.92419 -0.051,2.04097 0.66391,2.31262 0.4139,0.15735 2.006,0.37637 3.538,0.4867 2.9844,0.21494 5.7925,1.13614 7.0886,2.32551 0.3873,0.35532 0.9745,1.17336 1.3049,1.81787 0.5912,1.15296 0.6006,1.72409 0.5824,35.4521 -0.018,33.55455 -0.031,34.3049 -0.6124,35.44425 -0.3266,0.64022 -1.0458,1.56076 -1.5982,2.0457 -1.2891,1.13179 -5.3402,2.43803 -8.4789,2.73397 l -2.39951,0.22625 -0.091,1.7658 c -0.05,0.9712 -0.017,1.95849 0.073,2.19398 0.1412,0.36788 4.31131,0.41335 29.63472,0.32308 29.01232,-0.10344 29.53572,-0.11573 33.66952,-0.79015 l 0,-7.8e-4 z M 587.4349,95.49619 c -1.5821,-0.26679 -2.5831,-0.91118 -3.5105,-2.25995 l -0.6313,-0.91826 0,-35.86113 c 0,-40.55162 -0.2602,-36.6544 2.5072,-37.56334 4.355,-1.43037 8.0098,-1.3368 16.38861,0.41965 1.0726,0.22484 5.1829,2.16003 5.9973,2.82361 0.2483,0.20223 0.8422,0.5639 1.3199,0.8037 1.0373,0.52072 5.88001,5.32789 5.88001,5.83685 0,0.19584 0.2845,0.61315 0.6323,0.92735 0.3477,0.31423 0.8539,0.99944 1.1247,1.52274 1.4058,2.71597 1.8881,3.72619 2.6955,5.64635 0.4855,1.15461 0.9754,2.57164 1.0887,3.14894 0.1133,0.57731 0.4538,1.85938 0.7566,2.84904 1.1426,3.73333 1.3505,6.04207 1.3505,14.99496 0,9.26635 -0.2209,11.54714 -1.5334,15.83516 -0.3938,1.28684 -0.7161,2.57616 -0.7161,2.86515 0,0.47174 -0.4479,1.53281 -2.0435,4.84118 -0.8123,1.68411 -3.1966,5.14699 -4.4493,6.46175 -3.80251,3.99121 -9.60811,6.71123 -16.00231,7.49739 -3.70381,0.45536 -8.57541,0.51319 -10.85491,0.12886 z m 12.40651,-8.66414 c 3.2741,-0.83729 4.9203,-1.71528 7.1301,-3.80281 1.4733,-1.39178 2.323,-2.54303 3.3907,-4.59371 0.7835,-1.50504 1.4246,-2.99578 1.4246,-3.31275 0,-0.31696 0.1157,-0.64778 0.2571,-0.73514 0.7382,-0.45615 2.14441,-11.15859 2.13971,-16.2842 0,-4.26345 -1.19601,-13.01757 -1.98021,-14.54202 -0.2291,-0.44541 -0.4166,-1.03858 -0.4166,-1.31812 0,-0.84736 -2.6719,-5.8662 -3.77,-7.08157 -0.5659,-0.62631 -1.0289,-1.2534 -1.0289,-1.39355 0,-0.37124 -3.248,-2.85762 -4.649,-3.55881 -2.9464,-1.47472 -7.63611,-2.5151 -8.41691,-1.8672 -0.3695,0.30664 -0.4312,4.5256 -0.4312,29.51128 0,16.03441 0.09,29.24344 0.2,29.35338 0.4019,0.40184 3.96211,0.18489 6.15061,-0.37478 z m -94.22326,2.8057 c 3.25951,-0.59814 4.73631,-1.67967 5.00071,-3.66222 0.2155,-1.61633 -0.1705,-2.0726 -3.1402,-3.7117 -2.06931,-1.14216 -3.24111,-1.657 -6.66761,-2.92932 -0.7423,-0.27564 -1.6445,-0.66395 -2.0049,-0.8629 -0.3603,-0.19893 -0.8554,-0.36171 -1.1004,-0.36171 -0.2449,0 -0.8274,-0.18894 -1.2944,-0.41986 -1.2703,-0.62814 -5.412,-2.25164 -7.38921,-2.89655 -0.9576,-0.31231 -2.1049,-0.77014 -2.5495,-1.01734 -1.694,-0.94208 -6.7917,-2.87631 -7.1839,-2.72585 -0.5279,0.20258 -0.2121,2.557 0.5447,4.06061 0.2906,0.5773 0.8833,1.81637 1.3171,2.75349 1.9605,4.23503 6.1503,8.44948 10.26841,10.32877 2.06,0.94009 6.5917,1.83307 9.5421,1.88031 1.1547,0.0186 3.2504,-0.1776 4.6571,-0.43573 z M 269.37852,78.33482 c 0.2301,-0.87825 0.8407,-2.8198 1.061,-3.37386 0.6186,-1.55525 0.9421,-2.8731 0.7727,-3.1472 -0.311,-0.50312 -1.224,-0.33904 -1.8282,0.32856 -0.3138,0.34663 -1.4145,1.24986 -2.446,2.0072 -1.0316,0.75734 -1.8756,1.57648 -1.8756,1.82033 0,0.53109 0.8597,1.53755 1.3212,1.54691 0.1807,0.004 0.6659,0.2706 1.0783,0.59314 0.856,0.66946 1.772,0.77695 1.9166,0.22492 z M 464.71943,61.74206 c 0.1187,-0.30929 -0.2897,-0.95845 -1.1791,-1.87437 -3.1458,-3.23945 -4.4646,-4.97572 -6.0755,-7.99897 -0.8045,-1.50999 -1.4964,-1.61355 -2.9187,-0.43695 -1.55851,1.28932 -1.49221,2.06252 0.3,3.49598 1.7922,1.43358 5.7737,5.33476 5.7737,5.65733 0,0.13306 0.2934,0.5543 0.6521,0.93604 0.8012,0.85274 3.1473,1.00308 3.4475,0.22094 z m 81.53175,-10.02329 c 0,-5.99969 -0.037,-6.44684 -0.5484,-6.54521 -0.3494,-0.0673 -0.9219,0.33067 -1.5775,1.09655 -1.2212,1.4265 -3.74411,3.04947 -4.74041,3.04947 -1.0481,0 -1.552,0.73778 -1.1325,1.65832 0.1857,0.40747 0.5016,0.74087 0.702,0.74087 0.3925,0 2.5111,2.14335 4.85341,4.91019 2.3704,2.79989 2.4434,2.65321 2.4434,-4.91019 z M 520.50256,40.76129 c 0.097,-0.25356 -0.042,-0.70281 -0.3093,-0.9983 -0.2675,-0.29549 -0.4863,-0.67082 -0.4863,-0.83402 0,-0.16324 -0.7879,-1.50469 -1.7509,-2.98106 -1.7655,-2.70692 -4.6791,-5.6692 -6.6473,-6.75841 -0.5774,-0.31954 -1.6358,-0.90965 -2.3521,-1.31137 -1.7037,-0.95554 -6.36681,-1.95162 -9.11521,-1.94712 -2.3557,0.004 -4.9298,0.56558 -6.0976,1.33071 -0.9475,0.62073 -0.9744,1.94188 -0.056,2.76486 0.8556,0.76693 5.4978,2.99938 9.5492,4.59218 1.7177,0.67531 3.5616,1.42518 4.09781,1.66642 1.9236,0.86557 2.9627,1.28758 5.4738,2.22309 2.2991,0.85651 3.764,1.43331 5.9987,2.36186 1.0701,0.44466 1.4934,0.41749 1.6954,-0.10884 l -2e-4,0 z"
     id="path2821"
     style="fill:#1e1812" />
</svg>
