<?xml version="1.0" encoding="UTF-8" standalone="no"?>
<!-- Created with Inkscape (http://www.inkscape.org/) -->

<svg
   xmlns:dc="http://purl.org/dc/elements/1.1/"
   xmlns:cc="http://creativecommons.org/ns#"
   xmlns:rdf="http://www.w3.org/1999/02/22-rdf-syntax-ns#"
   xmlns:svg="http://www.w3.org/2000/svg"
   xmlns="http://www.w3.org/2000/svg"
   xmlns:sodipodi="http://sodipodi.sourceforge.net/DTD/sodipodi-0.dtd"
   xmlns:inkscape="http://www.inkscape.org/namespaces/inkscape"
   width="500"
   height="500"
   id="svg3497"
   version="1.1"
   inkscape:version="0.48.3.1 r9886"
   sodipodi:docname="linux-powered-logo.svg"
   inkscape:export-filename="/media/gabriel/GT-I5500/Images/linux-powered-logo.png"
   inkscape:export-xdpi="90"
   inkscape:export-ydpi="90">
  <defs
     id="defs3499" />
  <sodipodi:namedview
     id="base"
     pagecolor="#ffffff"
     bordercolor="#666666"
     borderopacity="1.0"
     inkscape:pageopacity="0.0"
     inkscape:pageshadow="2"
     inkscape:zoom="0.70710678"
     inkscape:cx="433.5578"
     inkscape:cy="127.06552"
     inkscape:document-units="px"
     inkscape:current-layer="layer1"
     showgrid="false"
     showguides="true"
     inkscape:guide-bbox="true"
     inkscape:window-width="1024"
     inkscape:window-height="744"
     inkscape:window-x="0"
     inkscape:window-y="24"
     inkscape:window-maximized="1"
     inkscape:snap-page="false" />
  <metadata
     id="metadata3502">
    <rdf:RDF>
      <cc:Work
         rdf:about="">
        <dc:format>image/svg+xml</dc:format>
        <dc:type
           rdf:resource="http://purl.org/dc/dcmitype/StillImage" />
        <dc:title></dc:title>
      </cc:Work>
    </rdf:RDF>
  </metadata>
  <g
     inkscape:label="Camada 1"
     inkscape:groupmode="layer"
     id="layer1"
     transform="translate(0,-552.36218)">
    <g
       id="g5097"
       transform="matrix(2.2126678,0,0,2.2044582,-59.934639,-100.41477)">
      <g
         id="g161"
         class="Group"
         style="fill:#ffffff;fill-rule:evenodd;stroke:#000000;stroke-width:93.13169098;stroke-linecap:round;stroke-linejoin:round;stroke-miterlimit:4;stroke-opacity:1;stroke-dasharray:none;visibility:visible"
         transform="matrix(0.02143509,0,0,0.02151492,-78.305677,229.46713)">
        <g
           style="fill:#ffffff;stroke:#000000;stroke-width:93.13169098;stroke-linecap:round;stroke-miterlimit:4;stroke-opacity:1;stroke-dasharray:none"
           id="g163"
           class="com.sun.star.drawing.ClosedBezierShape">
          <g
             style="fill:#ffffff;stroke:#000000;stroke-width:93.13169098;stroke-linecap:round;stroke-miterlimit:4;stroke-opacity:1;stroke-dasharray:none"
             id="g165">
            <path
               style="fill:#ffffff;stroke:#000000;stroke-width:93.13169098;stroke-linecap:round;stroke-miterlimit:4;stroke-opacity:1;stroke-dasharray:none"
               inkscape:connector-curvature="0"
               id="path167"
               d="m 4959,4523 c 0,-21 0,-51 0,-75 0,-239 58,-448 174,-656 117,-208 274,-359 479,-478 160,-96 321,-144 495,-168 l 0,-6 8153,0 0,6 c 175,24 335,72 496,168 205,119 358,273 478,478 120,205 174,417 174,656 0,24 0,54 0,75 l 0,0 0,7682 0,0 c 0,21 0,51 0,79 0,235 -58,444 -174,652 -116,209 -273,359 -478,478 -161,96 -321,144 -496,168 l 0,7 -8153,0 0,-7 c -174,-24 -335,-72 -495,-168 -205,-119 -359,-273 -479,-478 -119,-205 -174,-417 -174,-652 0,-28 0,-58 0,-79 l 0,0 0,-7682 z" />
          </g>
        </g>
      </g>
      <g
         transform="translate(-67.0625,94.125)"
         id="g5062">
        <g
           transform="matrix(0.02143509,0,0,0.02151492,-11.905135,134.44951)"
           style="fill-rule:evenodd;stroke-width:28.22200012;stroke-linejoin:round;visibility:visible"
           class="com.sun.star.drawing.ClosedBezierShape"
           id="g171">
          <g
             id="g173">
            <path
               d="m 11217,13069 65,-198 65,-311 44,-334 17,-318 -17,-304 -37,-294 -72,-304 -89,-294 -78,-191 -96,-225 -256,-523 -246,-598 -103,-328 -78,-324 -52,-335 -6,-328 17,-167 20,-157 51,-168 55,-153 79,-157 88,-151 113,-153 133,-137 154,-140 174,-130 414,-246 454,-198 420,-106 202,-24 181,-7 184,7 168,31 167,41 150,58 150,61 147,89 260,198 242,233 212,263 192,293 184,304 150,311 274,622 95,246 0,3668 0,0 c 0,35 0,59 0,89 0,239 -58,438 -177,656 -120,219 -270,359 -475,475 -161,89 -321,143 -496,167 l 0,11 -3193,0 150,-520 z"
               id="path175"
               inkscape:connector-curvature="0"
               style="fill:#000000;stroke:none" />
            <rect
               x="10277"
               y="5766"
               width="5133"
               height="7824"
               id="rect177"
               style="fill:none;stroke:none" />
          </g>
        </g>
        <g
           transform="matrix(0.02143509,0,0,0.02151492,-11.905135,134.44951)"
           style="fill-rule:evenodd;stroke-width:28.22200012;stroke-linejoin:round;visibility:visible"
           class="Group"
           id="g179">
          <g
             class="com.sun.star.drawing.ClosedBezierShape"
             id="g181"
             transform="translate(34.989356,58.099217)">
            <g
               id="g183">
              <path
                 d="m 15384.673,12159.682 -7,0 c 7,31 7,55 7,85 0,240 -58,438 -174,653 -116,215 -273,359 -478,478 -168,89 -321,144 -495,167 l 0,7 -1985,0 0,-102 10,-127 0,-126 -10,-130 0,-126 -7,-126 0,-130 -7,-127 -17,-126 -7,-130 -17,-126 -13,-120 -17,-119 -24,-127 -24,-112 -17,-55 -14,-58 -17,-55 -17,-54 -14,-59 -17,-54 -14,-55 -27,-48 -7,-17 -7,-24 0,-24 -10,-13 -7,-48 0,-41 0,-41 7,-44 10,-41 7,-48 14,-41 20,-41 21,-48 24,-38 34,-47 31,-41 30,-48 35,-41 37,-38 41,-48 41,-41 45,-41 51,-37 44,-41 51,-38 55,-41 48,-41 55,-30 54,-41 58,-31 65,-41 55,-31 61,-31 58,-34.0004 62,-24 65,-31 65,-23 65,-31 61,-24 55,-24 75,-17 61,-24 55,-17 65,-14 61,-17 65,-17 58,-7 62,-7 65,-10 54,-7 55,0 58,0 55,0 54,7 52,0 54,10 48,14 48,7 41,20 38,21 47,17 31,24 41,31 31,24 34,41 17,17 7,13 55,75 54,76.0004 55,71 65,82 65,79 65,82 68,85 65,82 71,79 72,89 41,37 0,1404 z"
                 id="path185"
                 inkscape:connector-curvature="0"
                 style="fill:#ffffff;stroke:none" />
              <rect
                 x="11934"
                 y="9660"
                 width="3435"
                 height="3879"
                 id="rect187"
                 style="fill:none;stroke:none" />
            </g>
          </g>
          <g
             class="com.sun.star.drawing.PolyPolygonShape"
             id="g189">
            <g
               id="g191">
              <path
                 d="m 12349,8793 0,0 26,48 25,60 11,55 18,44 14,54 15,56 2,51 8,56 -1,52 5,49 -4,53 -7,47 -2,42 -13,49 -17,40 -13,42 -7,18 -10,22 -19,34 -23,35 -29,30 -23,24 -28,23 -32,20 -35,22 -29,11 -41,9 -38,16 -34,-4 -37,0 -41,-2 -34,-1 -51,-16 -40,-17 -40,-10 -44,-26 -34,-20 -44,-26 -37,-29 -39,-33 -41,-38 -43,-42 -30,-39 -36,-44 -34,-38 -28,-52 -27,-48 -30,-47 -28,-51 0,0 -23,-57 -22,-54 -20,-50 -11,-47 -11,-55 -14,-53 -3,-51 -15,-56 -2,-51 4,-53 -2,-51 7,-47 8,-44 7,-47 17,-40 20,-41 7,-21 9,-23 20,-33 22,-35 24,-25 31,-31 26,-18 25,-21 35,-22 38,-15 35,-14 31,-5 42,-6 34,1 48,10 37,0 19,10 21,7 46,7 42,20 40,17 36,26 37,29 44,26 40,35 40,36 34,38 43,41 30,40 31,50 33,45 27,48 30,47 22,54 z"
                 id="path193"
                 inkscape:connector-curvature="0"
                 style="fill:#ffffff;stroke:none" />
              <rect
                 x="11209"
                 y="8205"
                 width="1264"
                 height="1651"
                 id="rect195"
                 style="fill:none;stroke:none" />
            </g>
          </g>
          <g
             class="com.sun.star.drawing.PolyPolygonShape"
             id="g197">
            <g
               id="g199">
              <path
                 d="m 12887,8615 0,0 25,60 33,64 34,56 33,46 41,53 36,45 47,51 42,42 25,23 25,16 25,27 28,14 22,17 27,23 19,10 25,16 52,20 51,24 52,20 60,20 28,7 25,-3 29,7 27,4 26,1 25,-3 25,-2 25,-3 28,7 23,-8 24,-3 23,-9 24,-2 29,-12 22,-8 22,-9 32,-13 22,-9 17,-14 25,-10 20,-15 16,-14 19,-18 22,-17 20,-15 13,-23 18,-19 23,-16 13,-23 17,-22 15,-24 19,-26 21,-49 29,-56 23,-53 10,-56 11,-55 7,-29 7,-28 4,-35 -3,-25 0,-36 8,-26 -2,-69 -8,-66 1,-60 -18,-62 -18,-63 -13,-61 -18,-62 -27,-67 0,0 -25,-60 -32,-53 -34,-64 -34,-49 -39,-50 -41,-54 -39,-43 -46,-41 -26,-27 -27,-22 -25,-16 -22,-17 -27,-22 -22,-9 -25,-24 -22,-9 -53,-31 -52,-19 -51,-17 -56,-11 -29,-7 -27,-4 -29,-6 -28,-7 -25,2 -29,-7 -24,3 -25,2 -25,3 -22,8 -26,0 -23,9 -24,2 -29,11 -22,9 -22,9 -29,11 -23,17 -22,9 -19,7 -18,19 -29,19 -9,14 -29,19 -20,15 -18,19 -8,17 -20,15 -19,26 -15,25 -13,23 -17,22 -29,56 -23,53 -17,47 -17,58 -4,28 -9,32 -4,28 -8,25 0,37 -6,28 5,31 -7,29 2,69 2,69 8,55 14,61 8,67 25,60 16,59 27,67 z"
                 id="path201"
                 inkscape:connector-curvature="0"
                 style="fill:#ffffff;stroke:none" />
              <rect
                 x="12784"
                 y="7323"
                 width="1640"
                 height="1956"
                 id="rect203"
                 style="fill:none;stroke:none" />
            </g>
          </g>
          <g
             class="com.sun.star.drawing.PolyPolygonShape"
             id="g205">
            <g
               id="g207">
              <path
                 d="m 13264,8595 0,0 15,38 12,29 15,38 18,26 22,28 23,31 18,26 19,29 27,22 15,20 29,26 23,12 25,16 22,18 26,19 27,4 28,7 21,6 26,9 21,-2 16,2 6,-3 16,-6 10,7 10,-4 12,-5 26,-10 19,-7 22,-9 22,-20 10,-11 20,-15 15,-25 16,-24 11,-19 16,-25 4,-27 13,-31 7,-29 4,-27 4,-38 -2,-22 4,-38 -3,-43 -2,-32 -5,-31 -6,-34 -5,-31 -15,-38 -2,-33 -14,-35 0,0 -15,-38 -11,-28 -25,-35 -11,-28 -21,-25 -19,-29 -18,-26 -21,-25 -19,-29 -27,-23 -27,-22 -23,-20 -25,-16 -23,-13 -19,-11 -35,-12 -19,-11 -28,-7 -28,-4 -18,0 -16,6 -10,-7 -6,3 -19,0 -22,8 -22,9 -23,9 -19,15 -22,9 -13,16 -16,13 -16,25 -10,22 -17,22 -13,31 -10,22 -10,30 -7,28 -4,27 -8,36 -1,34 6,34 -4,35 5,31 6,34 2,33 9,40 11,29 9,40 11,29 z"
                 id="path209"
                 inkscape:connector-curvature="0"
                 style="fill:#000000;stroke:none" />
              <rect
                 x="13209"
                 y="7931"
                 width="769"
                 height="1069"
                 id="rect211"
                 style="fill:none;stroke:none" />
            </g>
          </g>
          <g
             class="com.sun.star.drawing.PolyPolygonShape"
             id="g213">
            <g
               id="g215">
              <path
                 d="m 12116,9062 0,0 12,29 13,31 12,29 8,19 10,33 2,24 12,29 0,25 6,35 3,24 -2,23 5,28 2,24 -4,17 -4,27 -12,23 0,18 -8,18 -12,16 -3,9 -7,10 -7,2 3,6 -16,7 -2,12 -10,3 -6,3 -7,2 -3,9 -10,4 -6,3 -7,2 -9,4 -9,-4 -6,3 -10,3 -6,3 -14,-6 -6,3 -25,2 -15,-1 -23,-10 -22,-9 -18,-8 -16,-12 -18,-8 -25,-15 -13,-14 -22,-17 -18,-18 -28,-22 -17,-23 -14,-17 -19,-29 -19,-18 -12,-28 -18,-26 -10,-26 0,0 -18,-26 -12,-28 -13,-32 -8,-18 -13,-32 1,-26 -12,-28 -3,-25 -7,-34 1,-26 -2,-21 1,-26 -4,-28 10,-19 -2,-24 9,-23 11,-18 0,-19 9,-22 6,-2 4,-9 7,-10 6,-3 7,-2 2,-12 10,-4 9,-4 4,-8 6,-3 16,-6 7,-3 15,-6 7,-3 9,4 6,-2 10,-4 9,-4 10,7 16,2 18,0 19,10 20,4 24,12 22,10 18,7 17,23 21,7 16,19 25,16 16,23 19,26 18,18 18,26 16,20 21,24 9,22 19,29 z"
                 id="path217"
                 inkscape:connector-curvature="0"
                 style="fill:#000000;stroke:none" />
              <rect
                 x="11576"
                 y="8757"
                 width="625"
                 height="859"
                 id="rect219"
                 style="fill:none;stroke:none" />
            </g>
          </g>
          <g
             class="com.sun.star.drawing.PolyPolygonShape"
             id="g221">
            <g
               id="g223">
              <path
                 d="m 12037,9634 4,-28 13,-31 17,-21 19,-45 14,-31 17,-40 19,-34 30,-37 17,-40 29,-38 22,-46 29,-37 36,-40 35,-40 36,-40 45,-34 41,-35 45,-36 54,-29 28,-23 19,-7 29,-19 29,-12 31,-13 29,-11 35,-14 34,-6 29,-12 41,-6 38,-15 31,-5 43,-3 39,-4 41,-9 44,0 41,2 37,0 48,-1 43,-3 48,11 52,1 41,2 59,9 51,9 50,13 33,1 47,7 38,3 35,4 43,-2 35,4 37,-8 38,4 40,-2 54,-3 41,2 50,-5 32,-2 25,-3 28,-4 34,4 31,-5 29,7 31,-5 38,3 44,1 24,5 39,3 33,1 26,1 31,13 27,4 29,7 22,9 30,10 20,14 21,6 25,16 22,10 14,16 23,20 14,9 15,20 13,13 19,19 8,22 16,19 5,13 9,22 10,26 7,19 9,22 0,18 9,23 -1,26 3,24 2,25 3,25 -3,20 -4,27 -1,26 -10,56 -7,47 -21,49 -23,53 -20,60 -31,53 -31,49 -31,53 -38,52 -49,53 -39,49 -47,56 -58,49 -48,45 -28,22 -14,21 -28,22 -23,24 -26,29 -23,24 -36,59 -48,52 -42,72 -43,58 -51,65 -25,29 -21,30 -32,31 -29,30 -28,30 -33,28 -32,31 -33,28 -37,26 -32,32 -41,24 -45,18 -40,27 -54,22 -41,16 -54,22 -45,18 -41,6 -38,7 -40,9 -39,5 -41,9 -34,-4 -37,0 -35,-5 -35,-4 -37,0 -28,-7 -34,-1 -28,-7 -60,-20 -71,-23 -56,-18 -115,-50 -58,-17 -66,-17 -63,-19 -33,-1 -29,-7 -63,-11 -50,-14 -53,-4 -46,-15 -50,-13 -49,-13 -41,-20 -43,-16 -31,-21 -44,-19 -27,-22 -34,-20 -25,-26 -28,-22 -28,-26 -24,-23 -21,-25 -13,-32 -17,-26 -12,-28 -13,-32 -5,-31 -8,-22 -2,-33 3,-27 -5,-31 6,-32 13,-31 9,-25 13,-31 12,-35 17,-21 13,-32 20,-33 16,-25 16,-25 17,-21 16,-25 10,-19 16,-25 7,-21 13,-13 16,-25 10,-19 3,-12 20,-15 3,-9 10,-22 16,-25 9,-22 20,-15 8,-18 2,-12 7,-11 6,-13 6,-2 z"
                 id="path225"
                 inkscape:connector-curvature="0"
                 style="fill:#ffd320;stroke:none" />
              <rect
                 x="11687"
                 y="8791"
                 width="3193"
                 height="2250"
                 id="rect227"
                 style="fill:none;stroke:none" />
            </g>
          </g>
          <g
             class="com.sun.star.drawing.PolyPolygonShape"
             id="g229">
            <g
               id="g231">
              <path
                 d="m 14503,9284 -13,5 -16,7 -6,2 -13,13 -16,6 -13,13 -25,21 -24,24 -29,38 -25,29 -26,36 -273,350 -81,102 -81,92 -85,93 -92,93 -52,43 -51,39 -54,40 -47,38 -52,36 -57,33 -57,31 -61,24 -57,23 -64,15 -59,17 -56,8 -66,8 -60,6 -57,5 -52,-2 -53,-4 -61,-5 -47,-7 -55,-10 -100,-19 -93,-22 -90,-33 -82,-30 -139,-46 -27,-12 -13,-5 -9,-4 -18,-8 -13,-5 -13,-6 -15,-1 0,0 -9,-4 0,0 -10,4 0,0 0,0 0,0 0,0 0,0 0,0 0,0 -6,2 0,0 0,0 0,0 -11,-28 -12,-29 0,0 7,-3 0,0 0,0 9,-3 0,0 7,-3 0,0 2,6 6,-2 10,-4 -1,8 0,0 10,-4 9,-4 9,4 10,7 9,4 12,2 29,7 49,24 143,53 77,28 88,27 86,24 103,17 43,9 60,12 47,-4 56,3 50,6 50,-2 57,-5 59,-9 53,-14 55,-11 63,-18 60,-24 50,-21 58,-30 47,-30 58,-31 52,-36 47,-37 51,-39 45,-44 93,-90 85,-93 80,-95 78,-90 269,-360 27,-33 32,-31 29,-38 32,-31 12,-5 14,-13 10,-11 12,-16 22,-9 16,-6 4,-9 22,-9 11,28 13,32 z"
                 id="path233"
                 inkscape:connector-curvature="0"
                 style="fill:#e68c3f;stroke:none" />
              <rect
                 x="11907"
                 y="9223"
                 width="2597"
                 height="1352"
                 id="rect235"
                 style="fill:none;stroke:none" />
            </g>
          </g>
        </g>
      </g>
    </g>
  </g>
</svg>
